<svg width="3373" height="1472" viewBox="0 0 3373 1472" fill="none" xmlns="http://www.w3.org/2000/svg">
<g filter="url(#filter0_d_78_29)">
<path d="M211.648 446.808C177.553 446.808 148.267 440.252 123.788 427.138C99.3097 414.025 80.5137 395.52 67.4002 371.624C54.5782 347.729 48.1671 319.753 48.1671 287.698C48.1671 255.643 54.5782 227.813 67.4002 204.209C80.5137 180.313 99.3097 161.809 123.788 148.695C148.267 135.582 177.553 129.025 211.648 129.025C232.047 129.025 251.717 132.085 270.659 138.205C289.601 144.324 304.9 152.63 316.556 163.12L292.515 226.502C279.693 217.177 266.871 210.329 254.049 205.958C241.227 201.295 228.113 198.964 214.708 198.964C187.607 198.964 167.208 206.686 153.512 222.131C139.816 237.284 132.968 259.14 132.968 287.698C132.968 316.548 139.816 338.695 153.512 354.14C167.208 369.293 187.607 376.87 214.708 376.87C228.113 376.87 241.227 374.684 254.049 370.313C266.871 365.65 279.693 358.657 292.515 349.332L316.556 412.713C304.9 422.913 289.601 431.218 270.659 437.629C251.717 443.748 232.047 446.808 211.648 446.808ZM494.5 446.808C471.187 446.808 449.914 443.02 430.681 435.443C411.448 427.867 394.837 417.084 380.85 403.097C367.153 388.818 356.517 371.916 348.94 352.391C341.655 332.867 338.012 311.302 338.012 287.698C338.012 263.803 341.655 242.092 348.94 222.568C356.517 203.043 367.153 186.287 380.85 172.3C394.837 158.312 411.448 147.676 430.681 140.39C449.914 132.814 471.187 129.025 494.5 129.025C517.812 129.025 539.085 132.814 558.319 140.39C577.552 147.676 594.016 158.312 607.713 172.3C621.7 186.287 632.337 203.043 639.622 222.568C647.199 241.801 650.987 263.365 650.987 287.261C650.987 311.448 647.199 333.304 639.622 352.828C632.337 372.353 621.7 389.255 607.713 403.534C594.016 417.522 577.552 428.304 558.319 435.88C539.085 443.166 517.812 446.808 494.5 446.808ZM494.5 379.492C509.944 379.492 523.058 375.85 533.84 368.565C544.622 361.279 552.927 350.789 558.756 337.092C564.584 323.396 567.498 306.931 567.498 287.698C567.498 268.465 564.584 252 558.756 238.304C553.219 224.608 544.914 214.263 533.84 207.269C523.058 199.984 509.944 196.341 494.5 196.341C479.346 196.341 466.233 199.984 455.159 207.269C444.377 214.263 436.072 224.608 430.244 238.304C424.415 252 421.501 268.465 421.501 287.698C421.501 306.931 424.27 323.396 429.807 337.092C435.635 350.789 444.086 361.279 455.159 368.565C466.233 375.85 479.346 379.492 494.5 379.492ZM699.35 442V133.834H766.228L872.448 323.979H857.148L962.93 133.834H1028.06V442H955.499V258.849H964.679L885.124 396.54H841.412L761.857 258.411H771.911V442H699.35ZM1084.79 442V133.834H1232.98C1256.29 133.834 1276.1 137.913 1292.42 146.073C1308.74 153.941 1321.13 165.452 1329.58 180.605C1338.32 195.467 1342.69 213.534 1342.69 234.807C1342.69 255.497 1338.32 273.565 1329.58 289.01C1321.13 304.163 1308.74 315.819 1292.42 323.979C1276.1 331.847 1256.29 335.781 1232.98 335.781H1165.22V442H1084.79ZM1165.22 274.148H1218.99C1234.14 274.148 1245.8 270.942 1253.96 264.531C1262.12 257.829 1266.2 247.921 1266.2 234.807C1266.2 221.402 1262.12 211.494 1253.96 205.083C1245.8 198.672 1234.14 195.467 1218.99 195.467H1165.22V274.148ZM1380.19 442V133.834H1597.87V195.904H1457.12V254.477H1587.82V316.548H1457.12V379.93H1597.87V442H1380.19ZM1723.39 442V199.401H1625.47V133.834H1901.73V199.401H1803.81V442H1723.39ZM1932.13 442V133.834H2149.82V195.904H2009.06V254.477H2139.76V316.548H2009.06V379.93H2149.82V442H1932.13ZM2200.63 442V133.834H2259.64L2413.51 325.727H2401.27V133.834H2475.58V442H2417.01L2263.14 249.669H2275.38V442H2200.63ZM2687.5 446.808C2653.4 446.808 2624.12 440.252 2599.64 427.138C2575.16 414.025 2556.36 395.52 2543.25 371.624C2530.43 347.729 2524.02 319.753 2524.02 287.698C2524.02 255.643 2530.43 227.813 2543.25 204.209C2556.36 180.313 2575.16 161.809 2599.64 148.695C2624.12 135.582 2653.4 129.025 2687.5 129.025C2707.9 129.025 2727.57 132.085 2746.51 138.205C2765.45 144.324 2780.75 152.63 2792.41 163.12L2768.36 226.502C2755.54 217.177 2742.72 210.329 2729.9 205.958C2717.08 201.295 2703.96 198.964 2690.56 198.964C2663.46 198.964 2643.06 206.686 2629.36 222.131C2615.67 237.284 2608.82 259.14 2608.82 287.698C2608.82 316.548 2615.67 338.695 2629.36 354.14C2643.06 369.293 2663.46 376.87 2690.56 376.87C2703.96 376.87 2717.08 374.684 2729.9 370.313C2742.72 365.65 2755.54 358.657 2768.36 349.332L2792.41 412.713C2780.75 422.913 2765.45 431.218 2746.51 437.629C2727.57 443.748 2707.9 446.808 2687.5 446.808ZM2831.97 442V133.834H3049.66V195.904H2908.91V254.477H3039.6V316.548H2908.91V379.93H3049.66V442H2831.97ZM3210.73 446.808C3194.7 446.808 3178.97 445.497 3163.52 442.874C3148.08 440.252 3133.8 436.463 3120.69 431.509C3107.57 426.555 3096.21 420.727 3086.59 414.025L3108.88 351.517C3117.92 357.345 3127.97 362.445 3139.05 366.816C3150.12 371.187 3161.78 374.684 3174.01 377.307C3186.25 379.638 3198.49 380.804 3210.73 380.804C3229.97 380.804 3243.37 378.327 3250.95 373.373C3258.82 368.127 3262.75 361.716 3262.75 354.14C3262.75 349.477 3261.58 345.543 3259.25 342.338C3256.92 339.132 3252.99 336.364 3247.45 334.032C3242.2 331.41 3235.07 329.224 3226.03 327.476L3174.89 316.548C3146.91 310.72 3126.08 300.52 3112.38 285.95C3098.69 271.379 3091.84 252.583 3091.84 229.562C3091.84 209.163 3097.23 191.533 3108.01 176.671C3119.08 161.518 3134.38 149.861 3153.91 141.702C3173.72 133.251 3196.45 129.025 3222.1 129.025C3236.38 129.025 3250.07 130.337 3263.19 132.959C3276.59 135.582 3288.98 139.516 3300.34 144.761C3311.71 149.715 3321.32 155.544 3329.19 162.246L3306.9 220.82C3295.82 212.66 3282.86 206.395 3267.99 202.024C3253.42 197.361 3237.83 195.03 3221.22 195.03C3210.44 195.03 3201.26 196.341 3193.68 198.964C3186.11 201.295 3180.28 204.792 3176.2 209.455C3172.41 214.117 3170.52 219.508 3170.52 225.628C3170.52 231.747 3172.99 236.993 3177.95 241.364C3183.19 245.444 3192.66 248.941 3206.36 251.855L3257.07 262.783C3285.33 268.902 3306.46 278.956 3320.45 292.944C3334.44 306.931 3341.43 325.144 3341.43 347.583C3341.43 367.399 3336.04 384.884 3325.26 400.037C3314.47 414.899 3299.32 426.41 3279.8 434.569C3260.27 442.729 3237.25 446.808 3210.73 446.808Z" fill="#0051FF"/>
<path d="M63.0367 888.229V568.646H105.68V622.309H100.888C105.999 604.741 116.061 590.686 131.074 580.145C146.087 569.604 164.134 564.334 185.216 564.334C205.979 564.334 224.026 569.285 239.358 579.187C254.691 588.77 266.669 602.665 275.294 620.872C283.918 638.759 288.23 660.161 288.23 685.076C288.23 709.671 283.918 731.233 275.294 749.759C266.989 767.966 255.01 782.021 239.358 791.923C224.026 801.506 205.979 806.297 185.216 806.297C164.454 806.297 146.566 801.027 131.553 790.486C116.54 779.945 106.478 766.05 101.367 748.801H106.638V888.229H63.0367ZM175.154 771.799C196.236 771.799 213.006 764.453 225.463 749.759C237.921 734.746 244.15 713.185 244.15 685.076C244.15 656.967 237.921 635.565 225.463 620.872C213.006 606.178 196.236 598.832 175.154 598.832C154.072 598.832 137.303 606.178 124.845 620.872C112.388 635.565 106.159 656.967 106.159 685.076C106.159 713.185 112.388 734.746 124.845 749.759C137.303 764.453 154.072 771.799 175.154 771.799ZM344.248 801.985V568.646H386.891V624.226H382.099C387.21 605.06 396.474 590.686 409.889 581.104C423.305 571.201 441.033 565.452 463.073 563.855L477.927 562.417L481.28 600.269L453.97 602.665C432.888 604.901 416.597 611.768 405.098 623.267C393.918 634.767 388.328 650.578 388.328 670.702V801.985H344.248ZM615.15 806.297C592.152 806.297 572.188 801.346 555.258 791.444C538.329 781.542 525.232 767.487 515.969 749.28C506.706 731.073 502.074 709.671 502.074 685.076C502.074 660.48 506.706 639.239 515.969 621.351C525.232 603.144 538.329 589.089 555.258 579.187C572.188 569.285 592.152 564.334 615.15 564.334C638.149 564.334 658.112 569.285 675.042 579.187C691.971 589.089 705.068 603.144 714.331 621.351C723.594 639.239 728.226 660.48 728.226 685.076C728.226 709.671 723.594 731.073 714.331 749.28C705.068 767.487 691.971 781.542 675.042 791.444C658.112 801.346 638.149 806.297 615.15 806.297ZM615.15 771.799C636.232 771.799 653.002 764.453 665.459 749.759C677.917 734.746 684.145 713.185 684.145 685.076C684.145 656.967 677.917 635.565 665.459 620.872C653.002 606.178 636.232 598.832 615.15 598.832C594.387 598.832 577.618 606.178 564.841 620.872C552.383 635.565 546.155 656.967 546.155 685.076C546.155 713.185 552.383 734.746 564.841 749.759C577.618 764.453 594.387 771.799 615.15 771.799ZM795.155 801.985V602.186H749.637V568.646H807.133L795.155 580.145V562.417C795.155 530.794 803.141 506.997 819.112 491.026C835.083 474.736 859.679 465.632 892.899 463.715L912.543 462.278L915.897 495.818L893.857 497.255C880.761 497.894 870.22 500.609 862.234 505.4C854.248 509.872 848.339 516.42 844.506 525.045C840.673 533.35 838.756 543.891 838.756 556.668V575.833L832.528 568.646H904.877V602.186H838.756V801.985H795.155ZM1045.83 806.297C1020.59 806.297 998.87 801.506 980.663 791.923C962.775 782.021 948.88 768.126 938.978 750.238C929.076 732.031 924.125 710.63 924.125 686.034C924.125 661.758 928.916 640.516 938.499 622.309C948.401 604.102 961.817 589.888 978.746 579.666C995.995 569.445 1015.64 564.334 1037.68 564.334C1059.08 564.334 1077.29 568.965 1092.3 578.229C1107.63 587.492 1119.29 600.748 1127.28 617.997C1135.58 634.926 1139.74 655.37 1139.74 679.326V695.138H958.143V667.348H1110.99L1102.84 674.056C1102.84 649.141 1097.41 629.975 1086.55 616.56C1075.69 602.824 1059.72 595.957 1038.64 595.957C1023.31 595.957 1010.21 599.63 999.349 606.977C988.489 614.004 980.184 624.066 974.434 637.162C968.684 649.939 965.81 664.793 965.81 681.722V684.597C965.81 703.762 968.844 719.893 974.913 732.989C981.302 745.766 990.405 755.509 1002.22 762.217C1014.04 768.605 1028.58 771.799 1045.83 771.799C1059.56 771.799 1072.82 769.723 1085.59 765.571C1098.69 761.099 1110.99 754.231 1122.49 744.968L1135.9 775.153C1125.36 784.736 1111.79 792.402 1095.18 798.152C1078.89 803.582 1062.44 806.297 1045.83 806.297ZM1274.46 806.297C1262.32 806.297 1250.34 805.179 1238.52 802.943C1227.02 800.707 1216.32 797.513 1206.42 793.36C1196.84 788.889 1188.37 783.618 1181.03 777.549L1193.96 747.363C1201.63 753.113 1209.94 758.064 1218.88 762.217C1227.82 766.05 1237.09 768.925 1246.67 770.841C1256.25 772.758 1265.83 773.716 1275.42 773.716C1292.99 773.716 1306.24 770.522 1315.19 764.133C1324.13 757.745 1328.6 749.28 1328.6 738.739C1328.6 729.795 1325.57 722.928 1319.5 718.136C1313.75 713.025 1304.64 709.192 1292.19 706.637L1247.63 697.533C1227.82 693.061 1212.81 685.715 1202.59 675.493C1192.69 664.952 1187.74 651.536 1187.74 635.246C1187.74 620.872 1191.57 608.414 1199.23 597.873C1207.22 587.013 1218.24 578.708 1232.29 572.958C1246.35 567.209 1262.48 564.334 1280.69 564.334C1291.55 564.334 1302.09 565.452 1312.31 567.688C1322.53 569.924 1332.11 573.118 1341.06 577.27C1350 581.423 1357.51 586.853 1363.58 593.561L1350.16 623.267C1344.09 617.518 1337.23 612.726 1329.56 608.893C1321.89 605.06 1313.91 602.186 1305.6 600.269C1297.3 598.033 1288.99 596.915 1280.69 596.915C1263.44 596.915 1250.34 600.269 1241.4 606.977C1232.77 613.685 1228.46 622.469 1228.46 633.329C1228.46 641.634 1231.02 648.502 1236.13 653.932C1241.56 659.362 1250.02 663.355 1261.52 665.91L1306.08 675.014C1326.84 679.486 1342.5 686.673 1353.04 696.575C1363.58 706.158 1368.85 719.254 1368.85 735.864C1368.85 750.558 1364.86 763.175 1356.87 773.716C1349.2 784.257 1338.18 792.402 1323.81 798.152C1309.75 803.582 1293.3 806.297 1274.46 806.297ZM1421.26 512.587V465.632H1473.49V512.587H1421.26ZM1425.58 801.985V568.646H1469.18V801.985H1425.58ZM1638.46 806.297C1615.46 806.297 1595.5 801.346 1578.57 791.444C1561.64 781.542 1548.54 767.487 1539.28 749.28C1530.01 731.073 1525.38 709.671 1525.38 685.076C1525.38 660.48 1530.01 639.239 1539.28 621.351C1548.54 603.144 1561.64 589.089 1578.57 579.187C1595.5 569.285 1615.46 564.334 1638.46 564.334C1661.46 564.334 1681.42 569.285 1698.35 579.187C1715.28 589.089 1728.38 603.144 1737.64 621.351C1746.9 639.239 1751.53 660.48 1751.53 685.076C1751.53 709.671 1746.9 731.073 1737.64 749.28C1728.38 767.487 1715.28 781.542 1698.35 791.444C1681.42 801.346 1661.46 806.297 1638.46 806.297ZM1638.46 771.799C1659.54 771.799 1676.31 764.453 1688.77 749.759C1701.23 734.746 1707.45 713.185 1707.45 685.076C1707.45 656.967 1701.23 635.565 1688.77 620.872C1676.31 606.178 1659.54 598.832 1638.46 598.832C1617.7 598.832 1600.93 606.178 1588.15 620.872C1575.69 635.565 1569.46 656.967 1569.46 685.076C1569.46 713.185 1575.69 734.746 1588.15 749.759C1600.93 764.453 1617.7 771.799 1638.46 771.799ZM1807.39 801.985V568.646H1850.03V619.434H1844.76C1851.47 601.227 1862.33 587.492 1877.34 578.229C1892.67 568.965 1910.08 564.334 1929.57 564.334C1948.41 564.334 1963.91 567.688 1976.04 574.396C1988.18 581.104 1997.29 591.485 2003.35 605.539C2009.42 619.275 2012.46 636.524 2012.46 657.286V801.985H1968.86V659.682C1968.86 645.947 1967.1 634.607 1963.59 625.663C1960.07 616.719 1954.48 610.171 1946.82 606.019C1939.47 601.866 1930.05 599.79 1918.55 599.79C1905.13 599.79 1893.31 602.665 1883.09 608.414C1872.87 614.164 1864.88 622.309 1859.13 632.85C1853.7 643.391 1850.99 655.689 1850.99 669.744V801.985H1807.39ZM2081.58 801.985V568.646H2124.22V619.434H2118.95C2125.66 601.227 2136.52 587.492 2151.53 578.229C2166.87 568.965 2184.28 564.334 2203.76 564.334C2222.61 564.334 2238.1 567.688 2250.24 574.396C2262.37 581.104 2271.48 591.485 2277.55 605.539C2283.62 619.275 2286.65 636.524 2286.65 657.286V801.985H2243.05V659.682C2243.05 645.947 2241.29 634.607 2237.78 625.663C2234.26 616.719 2228.67 610.171 2221.01 606.019C2213.66 601.866 2204.24 599.79 2192.74 599.79C2179.32 599.79 2167.51 602.665 2157.28 608.414C2147.06 614.164 2139.08 622.309 2133.33 632.85C2127.9 643.391 2125.18 655.689 2125.18 669.744V801.985H2081.58ZM2463.58 806.297C2438.34 806.297 2416.62 801.506 2398.42 791.923C2380.53 782.021 2366.63 768.126 2356.73 750.238C2346.83 732.031 2341.88 710.63 2341.88 686.034C2341.88 661.758 2346.67 640.516 2356.25 622.309C2366.15 604.102 2379.57 589.888 2396.5 579.666C2413.75 569.445 2433.39 564.334 2455.43 564.334C2476.83 564.334 2495.04 568.965 2510.05 578.229C2525.39 587.492 2537.05 600.748 2545.03 617.997C2553.34 634.926 2557.49 655.37 2557.49 679.326V695.138H2375.9V667.348H2528.74L2520.6 674.056C2520.6 649.141 2515.17 629.975 2504.3 616.56C2493.44 602.824 2477.47 595.957 2456.39 595.957C2441.06 595.957 2427.96 599.63 2417.1 606.977C2406.24 614.004 2397.94 624.066 2392.19 637.162C2386.44 649.939 2383.56 664.793 2383.56 681.722V684.597C2383.56 703.762 2386.6 719.893 2392.67 732.989C2399.05 745.766 2408.16 755.509 2419.98 762.217C2431.8 768.605 2446.33 771.799 2463.58 771.799C2477.31 771.799 2490.57 769.723 2503.35 765.571C2516.44 761.099 2528.74 754.231 2540.24 744.968L2553.66 775.153C2543.11 784.736 2529.54 792.402 2512.93 798.152C2496.64 803.582 2480.19 806.297 2463.58 806.297ZM2685.98 806.297C2661.07 806.297 2642.38 799.27 2629.92 785.215C2617.79 770.841 2611.72 750.238 2611.72 723.407V464.195H2655.32V720.053C2655.32 730.913 2656.76 740.176 2659.63 747.843C2662.83 755.189 2667.3 760.62 2673.05 764.133C2679.12 767.647 2686.62 769.404 2695.57 769.404C2699.08 769.404 2702.59 769.244 2706.11 768.925C2709.94 768.605 2713.45 767.966 2716.65 767.008L2715.69 802.464C2710.58 803.742 2705.47 804.7 2700.36 805.339C2695.57 805.978 2690.77 806.297 2685.98 806.297ZM2830.1 806.297C2805.18 806.297 2786.5 799.27 2774.04 785.215C2761.9 770.841 2755.83 750.238 2755.83 723.407V464.195H2799.43V720.053C2799.43 730.913 2800.87 740.176 2803.75 747.843C2806.94 755.189 2811.41 760.62 2817.16 764.133C2823.23 767.647 2830.74 769.404 2839.68 769.404C2843.19 769.404 2846.71 769.244 2850.22 768.925C2854.05 768.605 2857.57 767.966 2860.76 767.008L2859.8 802.464C2854.69 803.742 2849.58 804.7 2844.47 805.339C2839.68 805.978 2834.89 806.297 2830.1 806.297ZM3005.41 806.297C2980.18 806.297 2958.46 801.506 2940.25 791.923C2922.36 782.021 2908.47 768.126 2898.57 750.238C2888.66 732.031 2883.71 710.63 2883.71 686.034C2883.71 661.758 2888.5 640.516 2898.09 622.309C2907.99 604.102 2921.4 589.888 2938.33 579.666C2955.58 569.445 2975.23 564.334 2997.27 564.334C3018.67 564.334 3036.88 568.965 3051.89 578.229C3067.22 587.492 3078.88 600.748 3086.87 617.997C3095.17 634.926 3099.32 655.37 3099.32 679.326V695.138H2917.73V667.348H3070.58L3062.43 674.056C3062.43 649.141 3057 629.975 3046.14 616.56C3035.28 602.824 3019.31 595.957 2998.23 595.957C2982.89 595.957 2969.8 599.63 2958.94 606.977C2948.08 614.004 2939.77 624.066 2934.02 637.162C2928.27 649.939 2925.4 664.793 2925.4 681.722V684.597C2925.4 703.762 2928.43 719.893 2934.5 732.989C2940.89 745.766 2949.99 755.509 2961.81 762.217C2973.63 768.605 2988.16 771.799 3005.41 771.799C3019.15 771.799 3032.4 769.723 3045.18 765.571C3058.28 761.099 3070.58 754.231 3082.07 744.968L3095.49 775.153C3084.95 784.736 3071.37 792.402 3054.76 798.152C3038.47 803.582 3022.02 806.297 3005.41 806.297ZM3234.05 806.297C3221.91 806.297 3209.93 805.179 3198.11 802.943C3186.61 800.707 3175.91 797.513 3166.01 793.36C3156.43 788.889 3147.96 783.618 3140.61 777.549L3153.55 747.363C3161.22 753.113 3169.52 758.064 3178.47 762.217C3187.41 766.05 3196.67 768.925 3206.26 770.841C3215.84 772.758 3225.42 773.716 3235 773.716C3252.57 773.716 3265.83 770.522 3274.77 764.133C3283.72 757.745 3288.19 749.28 3288.19 738.739C3288.19 729.795 3285.15 722.928 3279.08 718.136C3273.34 713.025 3264.23 709.192 3251.77 706.637L3207.21 697.533C3187.41 693.061 3172.4 685.715 3162.18 675.493C3152.27 664.952 3147.32 651.536 3147.32 635.246C3147.32 620.872 3151.16 608.414 3158.82 597.873C3166.81 587.013 3177.83 578.708 3191.88 572.958C3205.94 567.209 3222.07 564.334 3240.28 564.334C3251.14 564.334 3261.68 565.452 3271.9 567.688C3282.12 569.924 3291.7 573.118 3300.65 577.27C3309.59 581.423 3317.1 586.853 3323.17 593.561L3309.75 623.267C3303.68 617.518 3296.81 612.726 3289.15 608.893C3281.48 605.06 3273.5 602.186 3265.19 600.269C3256.89 598.033 3248.58 596.915 3240.28 596.915C3223.03 596.915 3209.93 600.269 3200.99 606.977C3192.36 613.685 3188.05 622.469 3188.05 633.329C3188.05 641.634 3190.6 648.502 3195.72 653.932C3201.15 659.362 3209.61 663.355 3221.11 665.91L3265.67 675.014C3286.43 679.486 3302.08 686.673 3312.62 696.575C3323.17 706.158 3328.44 719.254 3328.44 735.864C3328.44 750.558 3324.44 763.175 3316.46 773.716C3308.79 784.257 3297.77 792.402 3283.4 798.152C3269.34 803.582 3252.89 806.297 3234.05 806.297Z" fill="#0051FF"/>
<path d="M724.469 1236.36V931.104H765.201V982.362H760.624C765.506 965.581 775.117 952.157 789.457 942.088C803.797 932.02 821.035 926.985 841.172 926.985C861.004 926.985 878.243 931.715 892.888 941.173C907.533 950.326 918.975 963.598 927.212 980.989C935.45 998.075 939.569 1018.52 939.569 1042.32C939.569 1065.81 935.45 1086.4 927.212 1104.1C919.28 1121.49 907.838 1134.92 892.888 1144.37C878.243 1153.53 861.004 1158.1 841.172 1158.1C821.34 1158.1 804.254 1153.07 789.914 1143C775.574 1132.93 765.964 1119.66 761.082 1103.18H766.116V1236.36H724.469ZM831.561 1125.15C851.698 1125.15 867.717 1118.13 879.616 1104.1C891.515 1089.76 897.464 1069.17 897.464 1042.32C897.464 1015.47 891.515 995.024 879.616 980.989C867.717 966.954 851.698 959.937 831.561 959.937C811.424 959.937 795.406 966.954 783.507 980.989C771.608 995.024 765.658 1015.47 765.658 1042.32C765.658 1069.17 771.608 1089.76 783.507 1104.1C795.406 1118.13 811.424 1125.15 831.561 1125.15ZM1096.05 1158.1C1071.95 1158.1 1051.2 1153.53 1033.81 1144.37C1016.72 1134.92 1003.45 1121.64 993.991 1104.56C984.533 1087.17 979.804 1066.72 979.804 1043.23C979.804 1020.04 984.381 999.753 993.534 982.362C1002.99 964.971 1015.81 951.394 1031.98 941.631C1048.45 931.867 1067.22 926.985 1088.27 926.985C1108.71 926.985 1126.1 931.41 1140.44 940.258C1155.09 949.106 1166.22 961.768 1173.85 978.243C1181.78 994.414 1185.75 1013.94 1185.75 1036.82V1051.93H1012.3V1025.38H1158.29L1150.51 1031.79C1150.51 1007.99 1145.32 989.685 1134.95 976.87C1124.58 963.751 1109.32 957.191 1089.18 957.191C1074.54 957.191 1062.03 960.7 1051.66 967.717C1041.28 974.43 1033.35 984.04 1027.86 996.55C1022.37 1008.75 1019.62 1022.94 1019.62 1039.11V1041.86C1019.62 1060.16 1022.52 1075.57 1028.32 1088.08C1034.42 1100.29 1043.11 1109.59 1054.4 1116C1065.69 1122.1 1079.57 1125.15 1096.05 1125.15C1109.17 1125.15 1121.83 1123.17 1134.04 1119.2C1146.54 1114.93 1158.29 1108.37 1169.28 1099.52L1182.09 1128.36C1172.02 1137.51 1159.05 1144.83 1143.19 1150.32C1127.63 1155.51 1111.92 1158.1 1096.05 1158.1ZM1237.55 1153.98V931.104H1278.28V984.193H1273.7C1278.59 965.887 1287.43 952.157 1300.25 943.004C1313.06 933.545 1330 928.053 1351.05 926.528L1365.24 925.155L1368.44 961.31L1342.35 963.598C1322.22 965.734 1306.66 972.294 1295.67 983.278C1284.99 994.262 1279.65 1009.36 1279.65 1028.59V1153.98H1237.55ZM1479.35 1158.1C1467.76 1158.1 1456.32 1157.04 1445.03 1154.9C1434.05 1152.76 1423.82 1149.71 1414.37 1145.75C1405.21 1141.48 1397.13 1136.44 1390.11 1130.64L1402.47 1101.81C1409.79 1107.3 1417.72 1112.03 1426.27 1116C1434.81 1119.66 1443.66 1122.41 1452.81 1124.24C1461.96 1126.07 1471.12 1126.98 1480.27 1126.98C1497.05 1126.98 1509.71 1123.93 1518.26 1117.83C1526.8 1111.73 1531.07 1103.64 1531.07 1093.57C1531.07 1085.03 1528.17 1078.47 1522.37 1073.89C1516.88 1069.01 1508.19 1065.35 1496.29 1062.91L1453.73 1054.21C1434.81 1049.94 1420.47 1042.93 1410.71 1033.16C1401.25 1023.09 1396.52 1010.28 1396.52 994.719C1396.52 980.989 1400.18 969.09 1407.5 959.022C1415.13 948.648 1425.66 940.715 1439.08 935.223C1452.5 929.731 1467.91 926.985 1485.3 926.985C1495.68 926.985 1505.75 928.053 1515.51 930.189C1525.27 932.325 1534.43 935.376 1542.97 939.342C1551.51 943.309 1558.68 948.496 1564.48 954.903L1551.66 983.278C1545.87 977.786 1539.31 973.209 1531.99 969.548C1524.66 965.887 1517.03 963.141 1509.1 961.31C1501.17 959.174 1493.24 958.106 1485.3 958.106C1468.83 958.106 1456.32 961.31 1447.78 967.717C1439.54 974.124 1435.42 982.515 1435.42 992.889C1435.42 1000.82 1437.86 1007.38 1442.74 1012.57C1447.93 1017.75 1456.01 1021.57 1467 1024.01L1509.56 1032.7C1529.39 1036.98 1544.34 1043.84 1554.41 1053.3C1564.48 1062.45 1569.51 1074.96 1569.51 1090.83C1569.51 1104.86 1565.7 1116.91 1558.07 1126.98C1550.75 1137.05 1540.22 1144.83 1526.49 1150.32C1513.07 1155.51 1497.36 1158.1 1479.35 1158.1ZM1718.44 1158.1C1696.47 1158.1 1677.4 1153.37 1661.23 1143.92C1645.06 1134.46 1632.55 1121.03 1623.7 1103.64C1614.85 1086.25 1610.43 1065.81 1610.43 1042.32C1610.43 1018.82 1614.85 998.533 1623.7 981.447C1632.55 964.056 1645.06 950.631 1661.23 941.173C1677.4 931.715 1696.47 926.985 1718.44 926.985C1740.4 926.985 1759.47 931.715 1775.64 941.173C1791.81 950.631 1804.32 964.056 1813.17 981.447C1822.02 998.533 1826.44 1018.82 1826.44 1042.32C1826.44 1065.81 1822.02 1086.25 1813.17 1103.64C1804.32 1121.03 1791.81 1134.46 1775.64 1143.92C1759.47 1153.37 1740.4 1158.1 1718.44 1158.1ZM1718.44 1125.15C1738.57 1125.15 1754.59 1118.13 1766.49 1104.1C1778.39 1089.76 1784.34 1069.17 1784.34 1042.32C1784.34 1015.47 1778.39 995.024 1766.49 980.989C1754.59 966.954 1738.57 959.937 1718.44 959.937C1698.6 959.937 1682.58 966.954 1670.38 980.989C1658.48 995.024 1652.53 1015.47 1652.53 1042.32C1652.53 1069.17 1658.48 1089.76 1670.38 1104.1C1682.58 1118.13 1698.6 1125.15 1718.44 1125.15ZM1879.79 1153.98V931.104H1920.52V979.616H1915.49C1921.9 962.225 1932.27 949.106 1946.61 940.258C1961.26 931.41 1977.88 926.985 1996.5 926.985C2014.5 926.985 2029.29 930.189 2040.89 936.596C2052.48 943.004 2061.18 952.92 2066.98 966.344C2072.77 979.464 2075.67 995.94 2075.67 1015.77V1153.98H2034.02V1018.06C2034.02 1004.94 2032.35 994.109 2028.99 985.566C2025.63 977.023 2020.29 970.768 2012.97 966.802C2005.95 962.836 1996.95 960.852 1985.97 960.852C1973.16 960.852 1961.87 963.598 1952.1 969.09C1942.34 974.582 1934.71 982.362 1929.22 992.431C1924.03 1002.5 1921.44 1014.25 1921.44 1027.67V1153.98H1879.79ZM2141.7 1153.98V931.104H2182.43V979.616H2177.39C2183.8 962.225 2194.17 949.106 2208.51 940.258C2223.16 931.41 2239.79 926.985 2258.4 926.985C2276.4 926.985 2291.2 930.189 2302.79 936.596C2314.39 943.004 2323.08 952.92 2328.88 966.344C2334.68 979.464 2337.57 995.94 2337.57 1015.77V1153.98H2295.93V1018.06C2295.93 1004.94 2294.25 994.109 2290.89 985.566C2287.54 977.023 2282.2 970.768 2274.87 966.802C2267.86 962.836 2258.86 960.852 2247.87 960.852C2235.06 960.852 2223.77 963.598 2214.01 969.09C2204.24 974.582 2196.61 982.362 2191.12 992.431C2185.94 1002.5 2183.34 1014.25 2183.34 1027.67V1153.98H2141.7ZM2506.57 1158.1C2482.47 1158.1 2461.72 1153.53 2444.33 1144.37C2427.24 1134.92 2413.97 1121.64 2404.51 1104.56C2395.06 1087.17 2390.33 1066.72 2390.33 1043.23C2390.33 1020.04 2394.9 999.753 2404.06 982.362C2413.51 964.971 2426.33 951.394 2442.5 941.631C2458.98 931.867 2477.74 926.985 2498.79 926.985C2519.23 926.985 2536.63 931.41 2550.97 940.258C2565.61 949.106 2576.75 961.768 2584.37 978.243C2592.31 994.414 2596.27 1013.94 2596.27 1036.82V1051.93H2422.82V1025.38H2568.81L2561.03 1031.79C2561.03 1007.99 2555.85 989.685 2545.47 976.87C2535.1 963.751 2519.84 957.191 2499.71 957.191C2485.06 957.191 2472.55 960.7 2462.18 967.717C2451.81 974.43 2443.87 984.04 2438.38 996.55C2432.89 1008.75 2430.14 1022.94 2430.14 1039.11V1041.86C2430.14 1060.16 2433.04 1075.57 2438.84 1088.08C2444.94 1100.29 2453.64 1109.59 2464.92 1116C2476.21 1122.1 2490.1 1125.15 2506.57 1125.15C2519.69 1125.15 2532.35 1123.17 2544.56 1119.2C2557.07 1114.93 2568.81 1108.37 2579.8 1099.52L2592.61 1128.36C2582.54 1137.51 2569.58 1144.83 2553.71 1150.32C2538.15 1155.51 2522.44 1158.1 2506.57 1158.1ZM2719.01 1158.1C2695.21 1158.1 2677.36 1151.39 2665.46 1137.97C2653.87 1124.24 2648.07 1104.56 2648.07 1078.93V831.335H2689.72V1075.73C2689.72 1086.1 2691.09 1094.95 2693.84 1102.27C2696.89 1109.29 2701.16 1114.47 2706.65 1117.83C2712.45 1121.19 2719.62 1122.86 2728.16 1122.86C2731.52 1122.86 2734.87 1122.71 2738.23 1122.41C2741.89 1122.1 2745.25 1121.49 2748.3 1120.58L2747.38 1154.44C2742.5 1155.66 2737.62 1156.58 2732.74 1157.19C2728.16 1157.8 2723.59 1158.1 2719.01 1158.1ZM2856.66 1158.1C2832.87 1158.1 2815.02 1151.39 2803.12 1137.97C2791.52 1124.24 2785.73 1104.56 2785.73 1078.93V831.335H2827.37V1075.73C2827.37 1086.1 2828.75 1094.95 2831.49 1102.27C2834.54 1109.29 2838.82 1114.47 2844.31 1117.83C2850.1 1121.19 2857.27 1122.86 2865.82 1122.86C2869.17 1122.86 2872.53 1122.71 2875.89 1122.41C2879.55 1122.1 2882.9 1121.49 2885.95 1120.58L2885.04 1154.44C2880.16 1155.66 2875.28 1156.58 2870.39 1157.19C2865.82 1157.8 2861.24 1158.1 2856.66 1158.1ZM3024.12 1158.1C3000.02 1158.1 2979.27 1153.53 2961.88 1144.37C2944.79 1134.92 2931.52 1121.64 2922.06 1104.56C2912.6 1087.17 2907.88 1066.72 2907.88 1043.23C2907.88 1020.04 2912.45 999.753 2921.61 982.362C2931.06 964.971 2943.88 951.394 2960.05 941.631C2976.52 931.867 2995.29 926.985 3016.34 926.985C3036.78 926.985 3054.17 931.41 3068.51 940.258C3083.16 949.106 3094.3 961.768 3101.92 978.243C3109.86 994.414 3113.82 1013.94 3113.82 1036.82V1051.93H2940.37V1025.38H3086.36L3078.58 1031.79C3078.58 1007.99 3073.4 989.685 3063.02 976.87C3052.65 963.751 3037.39 957.191 3017.26 957.191C3002.61 957.191 2990.1 960.7 2979.73 967.717C2969.35 974.43 2961.42 984.04 2955.93 996.55C2950.44 1008.75 2947.69 1022.94 2947.69 1039.11V1041.86C2947.69 1060.16 2950.59 1075.57 2956.39 1088.08C2962.49 1100.29 2971.19 1109.59 2982.47 1116C2993.76 1122.1 3007.65 1125.15 3024.12 1125.15C3037.24 1125.15 3049.9 1123.17 3062.11 1119.2C3074.62 1114.93 3086.36 1108.37 3097.35 1099.52L3110.16 1128.36C3100.09 1137.51 3087.13 1144.83 3071.26 1150.32C3055.7 1155.51 3039.99 1158.1 3024.12 1158.1ZM3242.51 1158.1C3230.91 1158.1 3219.47 1157.04 3208.18 1154.9C3197.2 1152.76 3186.98 1149.71 3177.52 1145.75C3168.37 1141.48 3160.28 1136.44 3153.26 1130.64L3165.62 1101.81C3172.94 1107.3 3180.88 1112.03 3189.42 1116C3197.96 1119.66 3206.81 1122.41 3215.96 1124.24C3225.12 1126.07 3234.27 1126.98 3243.42 1126.98C3260.2 1126.98 3272.87 1123.93 3281.41 1117.83C3289.95 1111.73 3294.22 1103.64 3294.22 1093.57C3294.22 1085.03 3291.32 1078.47 3285.53 1073.89C3280.04 1069.01 3271.34 1065.35 3259.44 1062.91L3216.88 1054.21C3197.96 1049.94 3183.62 1042.93 3173.86 1033.16C3164.4 1023.09 3159.67 1010.28 3159.67 994.719C3159.67 980.989 3163.33 969.09 3170.65 959.022C3178.28 948.648 3188.81 940.715 3202.23 935.223C3215.66 929.731 3231.07 926.985 3248.46 926.985C3258.83 926.985 3268.9 928.053 3278.66 930.189C3288.43 932.325 3297.58 935.376 3306.12 939.342C3314.66 943.309 3321.83 948.496 3327.63 954.903L3314.82 983.278C3309.02 977.786 3302.46 973.209 3295.14 969.548C3287.82 965.887 3280.19 963.141 3272.26 961.31C3264.32 959.174 3256.39 958.106 3248.46 958.106C3231.98 958.106 3219.47 961.31 3210.93 967.717C3202.69 974.124 3198.57 982.515 3198.57 992.889C3198.57 1000.82 3201.01 1007.38 3205.89 1012.57C3211.08 1017.75 3219.17 1021.57 3230.15 1024.01L3272.71 1032.7C3292.54 1036.98 3307.49 1043.84 3317.56 1053.3C3327.63 1062.45 3332.67 1074.96 3332.67 1090.83C3332.67 1104.86 3328.85 1116.91 3321.22 1126.98C3313.9 1137.05 3303.38 1144.83 3289.65 1150.32C3276.22 1155.51 3260.51 1158.1 3242.51 1158.1Z" fill="#0051FF"/>
</g>
<g filter="url(#filter1_d_78_29)">
<path fill-rule="evenodd" clip-rule="evenodd" d="M293.44 749.311L395.928 794.34L455.86 882.497L455.654 883.162L412.794 1021.39L465.27 1061.93L450.911 950.67L555.049 903.678L601.683 1017.03L601.756 1017.2L612.739 1104.05L626.797 1133.84L703.983 1175.46L704.141 1175.63L759.811 1233.83L713.057 1280.01L712.611 1280.09L611.997 1297.68L611.743 1297.64L545.673 1285.55L507.28 1325.43L507.043 1325.68L351.854 1380.26L351.423 1380.15L190.339 1337.05L190.046 1336.47L120.969 1199.96L120.715 1199.46L152.317 1086.26L171.107 1073.49L102.738 956.735L120.318 837.743L120.428 837.003L293.44 749.311ZM291.5 1167.78L283.705 1203.87L295.691 1221.5L319.914 1234.25L358.418 1246.97L396.759 1230.92L424.846 1194.12L303.586 1138.02L291.5 1167.78ZM257.732 948.298L297.582 982.01L326.495 953.215L317.739 907.504L297.109 890.743L269.696 904.761L257.732 948.298Z" fill="white"/>
</g>
<path d="M387.56 1327.98C354.01 1337.7 323.334 1340.78 295.533 1337.22C268.197 1333.53 245.238 1324.02 226.655 1308.69C208.072 1293.37 195.068 1272.89 187.642 1247.26C181.566 1226.29 179.758 1206.11 182.218 1186.71C185.144 1167.17 191.902 1147.79 202.492 1128.56C213.549 1109.19 228.069 1089.58 246.054 1069.72L264.866 1048.36L259.537 1066.57C231.486 1049.95 210.169 1033.9 195.584 1018.43C181.465 1002.82 171.637 985.466 166.102 966.362C159.621 943.995 159.076 922.94 164.466 903.194C170.188 882.848 181.251 865.248 197.655 850.393C214.525 835.403 235.775 824.195 261.403 816.769C285.167 809.883 306.885 808.136 326.556 811.527C346.227 814.919 363.183 822.886 377.424 835.427C391.665 847.969 401.89 864.957 408.101 886.391C412.962 903.166 414.125 920.255 411.591 937.657C409.523 954.924 402.894 973.008 391.702 991.908C380.511 1010.81 363.863 1031.8 341.758 1054.87L337.394 1037.19L503.103 1138.43L487.726 1142.89C493.373 1120.54 495.543 1094.91 494.236 1065.99C492.928 1037.08 488.653 1007.51 481.41 977.279L540.821 960.064C551.095 999.01 556.035 1036.98 555.64 1073.96C555.576 1110.35 550.636 1143.85 540.822 1174.47L534.654 1155.81L676.5 1237.44L590.529 1262.35L509.579 1213.07L526.354 1208.21C513.399 1236.72 494.833 1261.54 470.655 1282.69C446.944 1303.7 419.245 1318.8 387.56 1327.98ZM374.65 1270.35C399.812 1263.06 420.528 1251.76 436.797 1236.44C452.931 1220.65 465.851 1200.74 475.557 1176.72L479.131 1196.9L287.888 1083.36L317.152 1077.15L300.032 1096.51C285.7 1113.29 274.428 1128.42 266.215 1141.91C258.469 1155.27 253.72 1168.52 251.97 1181.65C250.551 1194.18 251.866 1207.44 255.917 1221.42C262.803 1245.18 276.425 1261.69 296.785 1270.95C317.475 1279.6 343.43 1279.4 374.65 1270.35ZM276.39 868.491C257.751 873.892 244.16 883.638 235.616 897.731C227.538 911.689 226.132 927.754 231.398 945.926C234.098 955.246 238.061 963.694 243.288 971.271C248.379 978.383 256.137 985.984 266.563 994.075C277.32 1001.56 291.314 1010.64 308.547 1021.31L291.073 1026.37C308.727 1007.11 322.194 990.835 331.474 977.539C340.754 964.243 346.772 951.893 349.528 940.487C352.284 929.082 352.042 917.787 348.802 906.604C343.806 889.364 334.599 877.636 321.182 871.422C308.095 864.607 293.164 863.63 276.39 868.491Z" fill="#0051FF"/>
<defs>
<filter id="filter0_d_78_29" x="44.1672" y="129.025" width="3301.26" height="1115.34" filterUnits="userSpaceOnUse" color-interpolation-filters="sRGB">
<feFlood flood-opacity="0" result="BackgroundImageFix"/>
<feColorMatrix in="SourceAlpha" type="matrix" values="0 0 0 0 0 0 0 0 0 0 0 0 0 0 0 0 0 0 127 0" result="hardAlpha"/>
<feOffset dy="4"/>
<feGaussianBlur stdDeviation="2"/>
<feComposite in2="hardAlpha" operator="out"/>
<feColorMatrix type="matrix" values="0 0 0 0 0 0 0 0 0 0 0 0 0 0 0 0 0 0 0.25 0"/>
<feBlend mode="normal" in2="BackgroundImageFix" result="effect1_dropShadow_78_29"/>
<feBlend mode="normal" in="SourceGraphic" in2="effect1_dropShadow_78_29" result="shape"/>
</filter>
<filter id="filter1_d_78_29" x="93.3173" y="749.311" width="675.913" height="650.558" filterUnits="userSpaceOnUse" color-interpolation-filters="sRGB">
<feFlood flood-opacity="0" result="BackgroundImageFix"/>
<feColorMatrix in="SourceAlpha" type="matrix" values="0 0 0 0 0 0 0 0 0 0 0 0 0 0 0 0 0 0 127 0" result="hardAlpha"/>
<feOffset dy="10.184"/>
<feGaussianBlur stdDeviation="4.7101"/>
<feComposite in2="hardAlpha" operator="out"/>
<feColorMatrix type="matrix" values="0 0 0 0 0 0 0 0 0 0 0 0 0 0 0 0 0 0 0.25 0"/>
<feBlend mode="normal" in2="BackgroundImageFix" result="effect1_dropShadow_78_29"/>
<feBlend mode="normal" in="SourceGraphic" in2="effect1_dropShadow_78_29" result="shape"/>
</filter>
</defs>
</svg>
