<svg width="2797" height="535" viewBox="0 0 2797 535" fill="none" xmlns="http://www.w3.org/2000/svg">
<g filter="url(#filter0_d_100_12727)">
<path d="M25.1061 397V120.441H220.463V176.145H94.1478V228.711H211.44V284.415H94.1478V341.296H220.463V397H25.1061ZM266.069 397V120.441H319.027L457.11 292.653H446.126V120.441H512.814V397H460.248L322.165 224.396H333.149V397H266.069ZM704.567 401.315C672.923 401.315 645.986 395.431 623.757 383.662C601.789 371.894 585.051 355.418 573.544 334.235C562.037 313.052 556.284 288.338 556.284 260.093C556.284 230.803 562.299 205.435 574.329 183.991C586.62 162.284 604.142 145.547 626.895 133.779C649.647 122.01 677.107 116.126 709.274 116.126C722.089 116.126 734.642 117.303 746.933 119.656C759.225 121.749 770.47 125.018 780.669 129.463C791.13 133.648 800.022 138.617 807.345 144.37L785.377 200.074C773.085 192.229 760.925 186.606 748.895 183.206C736.865 179.545 723.789 177.714 709.666 177.714C683.253 177.714 663.508 184.775 650.432 198.897C637.617 212.758 631.21 233.157 631.21 260.093C631.21 286.769 637.748 306.906 650.824 320.505C663.9 334.104 683.253 340.904 708.882 340.904C716.727 340.904 725.227 340.119 734.38 338.55C743.795 336.981 753.21 334.758 762.624 331.881L749.287 358.949V291.868H693.975V241.264H808.129V380.132C798.453 384.578 787.861 388.37 776.354 391.508C765.109 394.646 753.34 397 741.049 398.569C729.019 400.4 716.858 401.315 704.567 401.315ZM823.064 397L952.517 120.441H1009.4L1138.85 397H1066.67L1034.11 320.897L1061.57 340.904H899.951L927.803 320.897L895.243 397H823.064ZM980.369 195.759L934.864 304.421L923.88 285.592H1038.03L1027.05 304.421L981.153 195.759H980.369ZM1289.93 401.315C1258.28 401.315 1231.34 395.431 1209.12 383.662C1187.15 371.894 1170.41 355.418 1158.9 334.235C1147.4 313.052 1141.64 288.338 1141.64 260.093C1141.64 230.803 1147.66 205.435 1159.69 183.991C1171.98 162.284 1189.5 145.547 1212.25 133.779C1235.01 122.01 1262.47 116.126 1294.63 116.126C1307.45 116.126 1320 117.303 1332.29 119.656C1344.58 121.749 1355.83 125.018 1366.03 129.463C1376.49 133.648 1385.38 138.617 1392.7 144.37L1370.74 200.074C1358.44 192.229 1346.28 186.606 1334.25 183.206C1322.22 179.545 1309.15 177.714 1295.03 177.714C1268.61 177.714 1248.87 184.775 1235.79 198.897C1222.98 212.758 1216.57 233.157 1216.57 260.093C1216.57 286.769 1223.11 306.906 1236.18 320.505C1249.26 334.104 1268.61 340.904 1294.24 340.904C1302.09 340.904 1310.59 340.119 1319.74 338.55C1329.15 336.981 1338.57 334.758 1347.98 331.881L1334.65 358.949V291.868H1279.33V241.264H1393.49V380.132C1383.81 384.578 1373.22 388.37 1361.71 391.508C1350.47 394.646 1338.7 397 1326.41 398.569C1314.38 400.4 1302.22 401.315 1289.93 401.315ZM1441.77 397V120.441H1637.12V176.145H1510.81V228.711H1628.1V284.415H1510.81V341.296H1637.12V397H1441.77ZM1683.51 397V120.441H1743.53L1838.86 291.084H1825.13L1920.06 120.441H1978.51V397H1913.39V232.634H1921.63L1850.23 356.203H1811.01L1739.61 232.241H1748.63V397H1683.51ZM2029.42 397V120.441H2224.78V176.145H2098.47V228.711H2215.76V284.415H2098.47V341.296H2224.78V397H2029.42ZM2270.39 397V120.441H2323.34L2461.43 292.653H2450.44V120.441H2517.13V397H2464.57L2326.48 224.396H2337.47V397H2270.39ZM2632.78 397V179.283H2544.91V120.441H2792.83V179.283H2704.96V397H2632.78Z" fill="#0051FF"/>
</g>
<defs>
<filter id="filter0_d_100_12727" x="21.106" y="116.126" width="2775.73" height="293.189" filterUnits="userSpaceOnUse" color-interpolation-filters="sRGB">
<feFlood flood-opacity="0" result="BackgroundImageFix"/>
<feColorMatrix in="SourceAlpha" type="matrix" values="0 0 0 0 0 0 0 0 0 0 0 0 0 0 0 0 0 0 127 0" result="hardAlpha"/>
<feOffset dy="4"/>
<feGaussianBlur stdDeviation="2"/>
<feComposite in2="hardAlpha" operator="out"/>
<feColorMatrix type="matrix" values="0 0 0 0 0 0 0 0 0 0 0 0 0 0 0 0 0 0 0.25 0"/>
<feBlend mode="normal" in2="BackgroundImageFix" result="effect1_dropShadow_100_12727"/>
<feBlend mode="normal" in="SourceGraphic" in2="effect1_dropShadow_100_12727" result="shape"/>
</filter>
</defs>
</svg>
