<svg width="2881" height="948" viewBox="0 0 2881 948" fill="none" xmlns="http://www.w3.org/2000/svg">
<g filter="url(#filter0_d_78_14)">
<path d="M26.3692 417V126.527H231.554V185.034H98.8843V240.244H222.078V298.751H98.8843V358.493H231.554V417H26.3692ZM241.98 417L365.998 253.429V287.626L244.452 126.527H332.212L408.435 232.416H383.714L459.938 126.527H548.11L426.152 287.626V253.429L550.17 417H461.998L384.126 308.639H408.023L330.152 417H241.98ZM566.338 417V126.527H706.012C727.986 126.527 746.665 130.373 762.047 138.064C777.429 145.48 789.102 156.33 797.068 170.613C805.309 184.622 809.429 201.652 809.429 221.703C809.429 241.206 805.309 258.236 797.068 272.794C789.102 287.077 777.429 298.064 762.047 305.755C746.665 313.171 727.986 316.88 706.012 316.88H642.149V417H566.338ZM642.149 258.785H692.828C707.111 258.785 718.098 255.764 725.789 249.721C733.48 243.403 737.326 234.064 737.326 221.703C737.326 209.068 733.48 199.729 725.789 193.686C718.098 187.643 707.111 184.622 692.828 184.622H642.149V258.785ZM844.772 417V126.527H1049.96V185.034H917.287V240.244H1040.48V298.751H917.287V358.493H1049.96V417H844.772ZM1097.86 417V126.527H1237.53C1270.49 126.527 1295.9 134.63 1313.75 150.836C1331.88 166.768 1340.95 189.017 1340.95 217.583C1340.95 235.987 1336.83 252.055 1328.59 265.789C1320.62 279.249 1308.95 289.686 1293.57 297.103C1278.46 304.244 1259.78 307.815 1237.53 307.815L1240.83 300.399H1260.6C1272.42 300.399 1282.85 303.283 1291.92 309.051C1300.98 314.545 1308.54 323.06 1314.58 334.596L1359.9 417H1276.67L1226.41 324.708C1224.21 320.588 1221.6 317.429 1218.58 315.232C1215.56 313.034 1212.12 311.386 1208.28 310.287C1204.71 309.189 1200.72 308.639 1196.33 308.639H1173.67V417H1097.86ZM1173.67 255.077H1223.93C1238.49 255.077 1249.62 252.193 1257.31 246.425C1265 240.656 1268.84 231.729 1268.84 219.643C1268.84 208.107 1265 199.454 1257.31 193.686C1249.62 187.643 1238.49 184.622 1223.93 184.622H1173.67V255.077ZM1388.76 417V126.527H1464.58V417H1388.76ZM1517.12 417V126.527H1722.3V185.034H1589.63V240.244H1712.83V298.751H1589.63V358.493H1722.3V417H1517.12ZM1770.2 417V126.527H1825.83L1970.86 307.403H1959.32V126.527H2029.36V417H1974.15L1829.12 235.712H1840.66V417H1770.2ZM2229.11 421.532C2196.98 421.532 2169.37 415.352 2146.3 402.991C2123.23 390.631 2105.51 373.189 2093.15 350.665C2081.06 328.141 2075.02 301.772 2075.02 271.558C2075.02 241.343 2081.06 215.111 2093.15 192.862C2105.51 170.339 2123.23 152.896 2146.3 140.536C2169.37 128.175 2196.98 121.995 2229.11 121.995C2248.34 121.995 2266.88 124.879 2284.74 130.647C2302.59 136.416 2317.01 144.244 2328 154.133L2305.34 213.875C2293.25 205.085 2281.17 198.63 2269.08 194.51C2256.99 190.115 2244.63 187.918 2232 187.918C2206.45 187.918 2187.23 195.197 2174.32 209.755C2161.41 224.038 2154.95 244.639 2154.95 271.558C2154.95 298.751 2161.41 319.626 2174.32 334.184C2187.23 348.468 2206.45 355.609 2232 355.609C2244.63 355.609 2256.99 353.549 2269.08 349.429C2281.17 345.034 2293.25 338.442 2305.34 329.652L2328 389.395C2317.01 399.009 2302.59 406.837 2284.74 412.88C2266.88 418.648 2248.34 421.532 2229.11 421.532ZM2365.3 417V126.527H2570.48V185.034H2437.81V240.244H2561V298.751H2437.81V358.493H2570.48V417H2365.3ZM2722.31 421.532C2707.2 421.532 2692.37 420.296 2677.81 417.824C2663.25 415.352 2649.79 411.781 2637.43 407.112C2625.07 402.442 2614.36 396.948 2605.29 390.631L2626.31 331.712C2634.82 337.206 2644.3 342.013 2654.73 346.133C2665.17 350.253 2676.16 353.549 2687.7 356.021C2699.23 358.219 2710.77 359.317 2722.31 359.317C2740.43 359.317 2753.07 356.983 2760.21 352.313C2767.63 347.369 2771.34 341.326 2771.34 334.184C2771.34 329.79 2770.24 326.081 2768.04 323.06C2765.84 320.038 2762.13 317.429 2756.92 315.232C2751.97 312.759 2745.24 310.699 2736.73 309.051L2688.52 298.751C2662.15 293.257 2642.51 283.643 2629.6 269.91C2616.69 256.176 2610.24 238.459 2610.24 216.759C2610.24 197.532 2615.32 180.914 2625.48 166.905C2635.92 152.622 2650.34 141.635 2668.74 133.944C2687.42 125.978 2708.85 121.995 2733.02 121.995C2746.48 121.995 2759.39 123.231 2771.75 125.703C2784.38 128.175 2796.06 131.884 2806.77 136.828C2817.48 141.497 2826.55 146.991 2833.96 153.308L2812.95 208.519C2802.51 200.828 2790.29 194.922 2776.28 190.802C2762.55 186.407 2747.85 184.21 2732.19 184.21C2722.03 184.21 2713.38 185.446 2706.24 187.918C2699.1 190.115 2693.6 193.412 2689.76 197.806C2686.19 202.201 2684.4 207.283 2684.4 213.051C2684.4 218.819 2686.74 223.764 2691.4 227.884C2696.35 231.729 2705.28 235.025 2718.19 237.772L2765.98 248.073C2792.62 253.841 2812.54 263.317 2825.72 276.502C2838.91 289.686 2845.5 306.854 2845.5 328.004C2845.5 346.682 2840.42 363.163 2830.25 377.446C2820.09 391.455 2805.81 402.305 2787.4 409.996C2769 417.687 2747.3 421.532 2722.31 421.532Z" fill="#0051FF"/>
<path d="M30.3146 823.748V546.764H67.2735V593.274H63.1208C67.5504 578.048 76.271 565.866 89.2828 556.731C102.295 547.595 117.936 543.027 136.208 543.027C154.203 543.027 169.845 547.318 183.134 555.9C196.422 564.205 206.804 576.248 214.279 592.028C221.754 607.532 225.491 626.08 225.491 647.674C225.491 668.992 221.754 687.679 214.279 703.736C207.081 719.516 196.699 731.697 183.134 740.279C169.845 748.585 154.203 752.737 136.208 752.737C118.213 752.737 102.71 748.169 89.698 739.034C76.6863 729.898 67.9657 717.855 63.5361 702.905H68.1041V823.748H30.3146ZM127.487 722.838C145.759 722.838 160.294 716.471 171.091 703.736C181.888 690.724 187.286 672.037 187.286 647.674C187.286 623.312 181.888 604.763 171.091 592.028C160.294 579.294 145.759 572.926 127.487 572.926C109.216 572.926 94.6813 579.294 83.8843 592.028C73.0873 604.763 67.6888 623.312 67.6888 647.674C67.6888 672.037 73.0873 690.724 83.8843 703.736C94.6813 716.471 109.216 722.838 127.487 722.838ZM274.042 749V546.764H311.001V594.935H306.848C311.277 578.325 319.306 565.866 330.933 557.561C342.561 548.979 357.926 543.996 377.028 542.611L389.902 541.366L392.809 574.172L369.138 576.248C350.866 578.186 336.747 584.138 326.781 594.105C317.091 604.071 312.246 617.775 312.246 635.216V749H274.042ZM508.834 752.737C488.901 752.737 471.598 748.446 456.925 739.864C442.253 731.282 430.902 719.101 422.873 703.32C414.845 687.54 410.831 668.992 410.831 647.674C410.831 626.357 414.845 607.947 422.873 592.444C430.902 576.663 442.253 564.482 456.925 555.9C471.598 547.318 488.901 543.027 508.834 543.027C528.767 543.027 546.07 547.318 560.743 555.9C575.415 564.482 586.766 576.663 594.795 592.444C602.823 607.947 606.837 626.357 606.837 647.674C606.837 668.992 602.823 687.54 594.795 703.32C586.766 719.101 575.415 731.282 560.743 739.864C546.07 748.446 528.767 752.737 508.834 752.737ZM508.834 722.838C527.106 722.838 541.64 716.471 552.437 703.736C563.234 690.724 568.633 672.037 568.633 647.674C568.633 623.312 563.234 604.763 552.437 592.028C541.64 579.294 527.106 572.926 508.834 572.926C490.839 572.926 476.305 579.294 465.231 592.028C454.434 604.763 449.035 623.312 449.035 647.674C449.035 672.037 454.434 690.724 465.231 703.736C476.305 716.471 490.839 722.838 508.834 722.838ZM664.845 749V575.833H625.395V546.764H675.227L664.845 556.731V541.366C664.845 513.958 671.766 493.333 685.609 479.491C699.451 465.371 720.768 457.481 749.56 455.82L766.586 454.574L769.493 483.643L750.391 484.889C739.04 485.443 729.904 487.796 722.983 491.949C716.062 495.825 710.94 501.5 707.618 508.975C704.296 516.173 702.635 525.309 702.635 536.382V552.993L697.236 546.764H759.942V575.833H702.635V749H664.845ZM882.102 752.737C860.231 752.737 841.406 748.585 825.626 740.279C810.122 731.697 798.079 719.654 789.497 704.151C780.915 688.371 776.624 669.822 776.624 648.505C776.624 627.465 780.777 609.054 789.082 593.274C797.664 577.494 809.292 565.174 823.965 556.315C838.914 547.456 855.94 543.027 875.043 543.027C893.591 543.027 909.371 547.041 922.383 555.07C935.672 563.098 945.777 574.587 952.698 589.537C959.896 604.21 963.495 621.928 963.495 642.691V656.395H806.108V632.309H938.579L931.519 638.123C931.519 616.529 926.813 599.919 917.4 588.291C907.987 576.387 894.145 570.434 875.873 570.434C862.585 570.434 851.234 573.618 841.821 579.986C832.408 586.076 825.21 594.797 820.227 606.148C815.244 617.221 812.752 630.095 812.752 644.768V647.259C812.752 663.87 815.382 677.851 820.642 689.201C826.179 700.275 834.069 708.719 844.313 714.533C854.556 720.07 867.152 722.838 882.102 722.838C894.007 722.838 905.496 721.039 916.569 717.44C927.92 713.564 938.579 707.612 948.545 699.583L960.173 725.745C951.037 734.05 939.271 740.695 924.875 745.678C910.756 750.384 896.498 752.737 882.102 752.737ZM1080.26 752.737C1069.74 752.737 1059.36 751.768 1049.11 749.831C1039.15 747.893 1029.87 745.124 1021.29 741.525C1012.99 737.649 1005.65 733.081 999.283 727.821L1010.49 701.659C1017.14 706.643 1024.34 710.934 1032.09 714.533C1039.84 717.855 1047.87 720.346 1056.17 722.008C1064.48 723.669 1072.79 724.499 1081.09 724.499C1096.32 724.499 1107.81 721.731 1115.56 716.194C1123.31 710.657 1127.19 703.32 1127.19 694.185C1127.19 686.433 1124.56 680.481 1119.3 676.328C1114.31 671.898 1106.42 668.576 1095.62 666.362L1057 658.471C1039.84 654.596 1026.83 648.228 1017.97 639.369C1009.39 630.233 1005.1 618.606 1005.1 604.486C1005.1 592.028 1008.42 581.231 1015.06 572.096C1021.98 562.683 1031.54 555.485 1043.72 550.502C1055.9 545.518 1069.88 543.027 1085.66 543.027C1095.07 543.027 1104.21 543.996 1113.07 545.934C1121.93 547.872 1130.23 550.64 1137.98 554.239C1145.73 557.838 1152.24 562.544 1157.5 568.358L1145.87 594.105C1140.61 589.122 1134.66 584.969 1128.02 581.647C1121.37 578.325 1114.45 575.833 1107.25 574.172C1100.05 572.234 1092.86 571.265 1085.66 571.265C1070.71 571.265 1059.36 574.172 1051.61 579.986C1044.13 585.799 1040.39 593.413 1040.39 602.825C1040.39 610.023 1042.61 615.976 1047.04 620.682C1051.74 625.388 1059.08 628.849 1069.05 631.064L1107.67 638.954C1125.66 642.83 1139.23 649.059 1148.36 657.641C1157.5 665.946 1162.07 677.297 1162.07 691.693C1162.07 704.428 1158.61 715.363 1151.69 724.499C1145.04 733.635 1135.49 740.695 1123.03 745.678C1110.85 750.384 1096.59 752.737 1080.26 752.737ZM1207.5 498.178V457.481H1252.76V498.178H1207.5ZM1211.24 749V546.764H1249.02V749H1211.24ZM1395.74 752.737C1375.81 752.737 1358.51 748.446 1343.83 739.864C1329.16 731.282 1317.81 719.101 1309.78 703.32C1301.75 687.54 1297.74 668.992 1297.74 647.674C1297.74 626.357 1301.75 607.947 1309.78 592.444C1317.81 576.663 1329.16 564.482 1343.83 555.9C1358.51 547.318 1375.81 543.027 1395.74 543.027C1415.67 543.027 1432.98 547.318 1447.65 555.9C1462.32 564.482 1473.67 576.663 1481.7 592.444C1489.73 607.947 1493.74 626.357 1493.74 647.674C1493.74 668.992 1489.73 687.54 1481.7 703.32C1473.67 719.101 1462.32 731.282 1447.65 739.864C1432.98 748.446 1415.67 752.737 1395.74 752.737ZM1395.74 722.838C1414.01 722.838 1428.55 716.471 1439.34 703.736C1450.14 690.724 1455.54 672.037 1455.54 647.674C1455.54 623.312 1450.14 604.763 1439.34 592.028C1428.55 579.294 1414.01 572.926 1395.74 572.926C1377.75 572.926 1363.21 579.294 1352.14 592.028C1341.34 604.763 1335.94 623.312 1335.94 647.674C1335.94 672.037 1341.34 690.724 1352.14 703.736C1363.21 716.471 1377.75 722.838 1395.74 722.838ZM1542.15 749V546.764H1579.11V590.783H1574.54C1580.36 575.002 1589.77 563.098 1602.78 555.07C1616.07 547.041 1631.16 543.027 1648.05 543.027C1664.38 543.027 1677.81 545.934 1688.33 551.747C1698.85 557.561 1706.74 566.559 1712 578.74C1717.26 590.644 1719.89 605.594 1719.89 623.589V749H1682.1V625.665C1682.1 613.761 1680.58 603.933 1677.53 596.181C1674.48 588.429 1669.64 582.754 1663 579.155C1656.63 575.556 1648.46 573.757 1638.49 573.757C1626.87 573.757 1616.62 576.248 1607.76 581.231C1598.91 586.215 1591.98 593.274 1587 602.41C1582.29 611.546 1579.94 622.205 1579.94 634.386V749H1542.15ZM1779.8 749V546.764H1816.76V590.783H1812.19C1818 575.002 1827.41 563.098 1840.43 555.07C1853.71 547.041 1868.8 543.027 1885.69 543.027C1902.02 543.027 1915.45 545.934 1925.97 551.747C1936.49 557.561 1944.38 566.559 1949.64 578.74C1954.9 590.644 1957.53 605.594 1957.53 623.589V749H1919.74V625.665C1919.74 613.761 1918.22 603.933 1915.17 596.181C1912.13 588.429 1907.28 582.754 1900.64 579.155C1894.27 575.556 1886.11 573.757 1876.14 573.757C1864.51 573.757 1854.27 576.248 1845.41 581.231C1836.55 586.215 1829.63 593.274 1824.65 602.41C1819.94 611.546 1817.59 622.205 1817.59 634.386V749H1779.8ZM2110.88 752.737C2089 752.737 2070.18 748.585 2054.4 740.279C2038.9 731.697 2026.85 719.654 2018.27 704.151C2009.69 688.371 2005.4 669.822 2005.4 648.505C2005.4 627.465 2009.55 609.054 2017.86 593.274C2026.44 577.494 2038.07 565.174 2052.74 556.315C2067.69 547.456 2084.71 543.027 2103.82 543.027C2122.36 543.027 2138.15 547.041 2151.16 555.07C2164.45 563.098 2174.55 574.587 2181.47 589.537C2188.67 604.21 2192.27 621.928 2192.27 642.691V656.395H2034.88V632.309H2167.35L2160.29 638.123C2160.29 616.529 2155.59 599.919 2146.17 588.291C2136.76 576.387 2122.92 570.434 2104.65 570.434C2091.36 570.434 2080.01 573.618 2070.59 579.986C2061.18 586.076 2053.98 594.797 2049 606.148C2044.02 617.221 2041.53 630.095 2041.53 644.768V647.259C2041.53 663.87 2044.16 677.851 2049.42 689.201C2054.95 700.275 2062.84 708.719 2073.09 714.533C2083.33 720.07 2095.93 722.838 2110.88 722.838C2122.78 722.838 2134.27 721.039 2145.34 717.44C2156.69 713.564 2167.35 707.612 2177.32 699.583L2188.95 725.745C2179.81 734.05 2168.04 740.695 2153.65 745.678C2139.53 750.384 2125.27 752.737 2110.88 752.737ZM2303.64 752.737C2282.04 752.737 2265.85 746.647 2255.05 734.466C2244.53 722.008 2239.27 704.151 2239.27 680.896V456.236H2277.06V677.989C2277.06 687.402 2278.3 695.43 2280.8 702.075C2283.56 708.442 2287.44 713.148 2292.42 716.194C2297.68 719.239 2304.19 720.762 2311.94 720.762C2314.99 720.762 2318.03 720.623 2321.08 720.346C2324.4 720.07 2327.44 719.516 2330.21 718.685L2329.38 749.415C2324.95 750.523 2320.52 751.353 2316.09 751.907C2311.94 752.461 2307.79 752.737 2303.64 752.737ZM2428.54 752.737C2406.95 752.737 2390.75 746.647 2379.95 734.466C2369.43 722.008 2364.17 704.151 2364.17 680.896V456.236H2401.96V677.989C2401.96 687.402 2403.21 695.43 2405.7 702.075C2408.47 708.442 2412.34 713.148 2417.33 716.194C2422.59 719.239 2429.09 720.762 2436.85 720.762C2439.89 720.762 2442.94 720.623 2445.98 720.346C2449.3 720.07 2452.35 719.516 2455.12 718.685L2454.29 749.415C2449.86 750.523 2445.43 751.353 2441 751.907C2436.85 752.461 2432.69 752.737 2428.54 752.737ZM2580.49 752.737C2558.62 752.737 2539.79 748.585 2524.01 740.279C2508.51 731.697 2496.46 719.654 2487.88 704.151C2479.3 688.371 2475.01 669.822 2475.01 648.505C2475.01 627.465 2479.16 609.054 2487.47 593.274C2496.05 577.494 2507.68 565.174 2522.35 556.315C2537.3 547.456 2554.32 543.027 2573.43 543.027C2591.98 543.027 2607.76 547.041 2620.77 555.07C2634.06 563.098 2644.16 574.587 2651.08 589.537C2658.28 604.21 2661.88 621.928 2661.88 642.691V656.395H2504.49V632.309H2636.96L2629.9 638.123C2629.9 616.529 2625.2 599.919 2615.78 588.291C2606.37 576.387 2592.53 570.434 2574.26 570.434C2560.97 570.434 2549.62 573.618 2540.21 579.986C2530.79 586.076 2523.59 594.797 2518.61 606.148C2513.63 617.221 2511.14 630.095 2511.14 644.768V647.259C2511.14 663.87 2513.77 677.851 2519.03 689.201C2524.56 700.275 2532.45 708.719 2542.7 714.533C2552.94 720.07 2565.54 722.838 2580.49 722.838C2592.39 722.838 2603.88 721.039 2614.95 717.44C2626.3 713.564 2636.96 707.612 2646.93 699.583L2658.56 725.745C2649.42 734.05 2637.65 740.695 2623.26 745.678C2609.14 750.384 2594.88 752.737 2580.49 752.737ZM2778.64 752.737C2768.12 752.737 2757.74 751.768 2747.5 749.831C2737.53 747.893 2728.26 745.124 2719.68 741.525C2711.37 737.649 2704.03 733.081 2697.67 727.821L2708.88 701.659C2715.52 706.643 2722.72 710.934 2730.47 714.533C2738.22 717.855 2746.25 720.346 2754.56 722.008C2762.86 723.669 2771.17 724.499 2779.47 724.499C2794.7 724.499 2806.19 721.731 2813.94 716.194C2821.69 710.657 2825.57 703.32 2825.57 694.185C2825.57 686.433 2822.94 680.481 2817.68 676.328C2812.7 671.898 2804.81 668.576 2794.01 666.362L2755.39 658.471C2738.22 654.596 2725.21 648.228 2716.35 639.369C2707.77 630.233 2703.48 618.606 2703.48 604.486C2703.48 592.028 2706.8 581.231 2713.45 572.096C2720.37 562.683 2729.92 555.485 2742.1 550.502C2754.28 545.518 2768.26 543.027 2784.04 543.027C2793.46 543.027 2802.59 543.996 2811.45 545.934C2820.31 547.872 2828.61 550.64 2836.37 554.239C2844.12 557.838 2850.62 562.544 2855.88 568.358L2844.26 594.105C2839 589.122 2833.04 584.969 2826.4 581.647C2819.76 578.325 2812.83 575.833 2805.64 574.172C2798.44 572.234 2791.24 571.265 2784.04 571.265C2769.09 571.265 2757.74 574.172 2749.99 579.986C2742.52 585.799 2738.78 593.413 2738.78 602.825C2738.78 610.023 2740.99 615.976 2745.42 620.682C2750.13 625.388 2757.47 628.849 2767.43 631.064L2806.05 638.954C2824.05 642.83 2837.61 649.059 2846.75 657.641C2855.88 665.946 2860.45 677.297 2860.45 691.693C2860.45 704.428 2856.99 715.363 2850.07 724.499C2843.43 733.635 2833.87 740.695 2821.42 745.678C2809.24 750.384 2794.98 752.737 2778.64 752.737Z" fill="#0051FF"/>
</g>
<defs>
<filter id="filter0_d_78_14" x="22.3691" y="121.995" width="2842.08" height="709.753" filterUnits="userSpaceOnUse" color-interpolation-filters="sRGB">
<feFlood flood-opacity="0" result="BackgroundImageFix"/>
<feColorMatrix in="SourceAlpha" type="matrix" values="0 0 0 0 0 0 0 0 0 0 0 0 0 0 0 0 0 0 127 0" result="hardAlpha"/>
<feOffset dy="4"/>
<feGaussianBlur stdDeviation="2"/>
<feComposite in2="hardAlpha" operator="out"/>
<feColorMatrix type="matrix" values="0 0 0 0 0 0 0 0 0 0 0 0 0 0 0 0 0 0 0.25 0"/>
<feBlend mode="normal" in2="BackgroundImageFix" result="effect1_dropShadow_78_14"/>
<feBlend mode="normal" in="SourceGraphic" in2="effect1_dropShadow_78_14" result="shape"/>
</filter>
</defs>
</svg>
