<svg width="3321" height="1104" viewBox="0 0 3321 1104" fill="none" xmlns="http://www.w3.org/2000/svg">
<path d="M34.0134 478.173V187.634H236.773V246.154H109.842V304.674H227.706V362.781H109.842V478.173H34.0134ZM409.567 482.706C387.588 482.706 367.531 479.135 349.399 471.991C331.266 464.848 315.605 454.683 302.418 441.495C289.505 428.033 279.477 412.098 272.334 393.69C265.465 375.282 262.031 354.951 262.031 332.697C262.031 310.168 265.465 289.7 272.334 271.293C279.477 252.885 289.505 237.087 302.418 223.9C315.605 210.712 331.266 200.684 349.399 193.815C367.531 186.672 387.588 183.1 409.567 183.1C431.546 183.1 451.602 186.672 469.735 193.815C487.868 200.684 503.391 210.712 516.304 223.9C529.492 237.087 539.52 252.885 546.388 271.293C553.532 289.425 557.103 309.756 557.103 332.285C557.103 355.089 553.532 375.694 546.388 394.102C539.52 412.51 529.492 428.445 516.304 441.907C503.391 455.095 487.868 465.26 469.735 472.403C451.602 479.272 431.546 482.706 409.567 482.706ZM409.567 419.241C424.128 419.241 436.492 415.807 446.657 408.938C456.823 402.07 464.653 392.179 470.147 379.266C475.642 366.353 478.39 350.83 478.39 332.697C478.39 314.564 475.642 299.041 470.147 286.129C464.927 273.216 457.097 263.462 446.657 256.869C436.492 250 424.128 246.566 409.567 246.566C395.28 246.566 382.917 250 372.477 256.869C362.311 263.462 354.481 273.216 348.986 286.129C343.492 299.041 340.744 314.564 340.744 332.697C340.744 350.83 343.354 366.353 348.574 379.266C354.069 392.179 362.037 402.07 372.477 408.938C382.917 415.807 395.28 419.241 409.567 419.241ZM601.875 478.173V187.634H741.581C774.55 187.634 799.964 195.739 817.822 211.948C835.955 227.883 845.022 250.137 845.022 278.711C845.022 297.118 840.901 313.191 832.658 326.928C824.691 340.39 813.014 350.83 797.629 358.248C782.518 365.392 763.836 368.963 741.581 368.963L744.878 361.545H764.66C776.474 361.545 786.914 364.43 795.98 370.199C805.047 375.694 812.602 384.211 818.646 395.75L863.979 478.173H780.732L730.454 385.86C728.256 381.739 725.646 378.579 722.624 376.381C719.602 374.183 716.168 372.535 712.321 371.436C708.75 370.337 704.766 369.787 700.37 369.787H677.704V478.173H601.875ZM677.704 316.213H727.982C742.543 316.213 753.67 313.328 761.363 307.558C769.056 301.789 772.902 292.86 772.902 280.771C772.902 269.232 769.056 260.578 761.363 254.808C753.67 248.764 742.543 245.742 727.982 245.742H677.704V316.213ZM893.674 478.173V187.634H956.727L1056.87 366.903H1042.45L1142.18 187.634H1203.58V478.173H1135.17V305.498H1143.83L1068.82 435.313H1027.61L952.606 305.086H962.084V478.173H893.674ZM1222.04 478.173L1358.04 187.634H1417.79L1553.79 478.173H1477.96L1443.76 398.223L1472.6 419.241H1302.81L1332.07 398.223L1297.87 478.173H1222.04ZM1387.3 266.759L1339.49 380.914L1327.95 361.133H1447.88L1436.34 380.914L1388.12 266.759H1387.3ZM1607.2 478.173V249.451H1514.88V187.634H1775.34V249.451H1683.03V478.173H1607.2ZM1804 478.173V187.634H1879.83V478.173H1804ZM2072.51 482.706C2050.53 482.706 2030.47 479.135 2012.34 471.991C1994.2 464.848 1978.54 454.683 1965.36 441.495C1952.44 428.033 1942.41 412.098 1935.27 393.69C1928.4 375.282 1924.97 354.951 1924.97 332.697C1924.97 310.168 1928.4 289.7 1935.27 271.293C1942.41 252.885 1952.44 237.087 1965.36 223.9C1978.54 210.712 1994.2 200.684 2012.34 193.815C2030.47 186.672 2050.53 183.1 2072.51 183.1C2094.48 183.1 2114.54 186.672 2132.67 193.815C2150.81 200.684 2166.33 210.712 2179.24 223.9C2192.43 237.087 2202.46 252.885 2209.33 271.293C2216.47 289.425 2220.04 309.756 2220.04 332.285C2220.04 355.089 2216.47 375.694 2209.33 394.102C2202.46 412.51 2192.43 428.445 2179.24 441.907C2166.33 455.095 2150.81 465.26 2132.67 472.403C2114.54 479.272 2094.48 482.706 2072.51 482.706ZM2072.51 419.241C2087.07 419.241 2099.43 415.807 2109.6 408.938C2119.76 402.07 2127.59 392.179 2133.09 379.266C2138.58 366.353 2141.33 350.83 2141.33 332.697C2141.33 314.564 2138.58 299.041 2133.09 286.129C2127.87 273.216 2120.04 263.462 2109.6 256.869C2099.43 250 2087.07 246.566 2072.51 246.566C2058.22 246.566 2045.86 250 2035.42 256.869C2025.25 263.462 2017.42 273.216 2011.92 286.129C2006.43 299.041 2003.68 314.564 2003.68 332.697C2003.68 350.83 2006.29 366.353 2011.51 379.266C2017.01 392.179 2024.97 402.07 2035.42 408.938C2045.86 415.807 2058.22 419.241 2072.51 419.241ZM2264.81 478.173V187.634H2320.45L2465.51 368.551H2453.97V187.634H2524.03V478.173H2468.81L2323.75 296.843H2335.28V478.173H2264.81ZM2685.09 482.706C2669.98 482.706 2655.14 481.47 2640.58 478.997C2626.02 476.525 2612.56 472.953 2600.2 468.282C2587.83 463.612 2577.12 458.117 2568.05 451.798L2589.07 392.866C2597.59 398.361 2607.06 403.169 2617.5 407.29C2627.94 411.411 2638.93 414.708 2650.47 417.18C2662.01 419.378 2673.55 420.477 2685.09 420.477C2703.22 420.477 2715.86 418.142 2723.01 413.471C2730.42 408.526 2734.13 402.482 2734.13 395.338C2734.13 390.943 2733.03 387.233 2730.84 384.211C2728.64 381.189 2724.93 378.579 2719.71 376.381C2714.76 373.909 2708.03 371.848 2699.51 370.199L2651.3 359.897C2624.92 354.402 2605.28 344.786 2592.37 331.049C2579.45 317.312 2573 299.591 2573 277.886C2573 258.654 2578.08 242.033 2588.24 228.021C2598.68 213.734 2613.11 202.744 2631.52 195.052C2650.2 187.084 2671.63 183.1 2695.81 183.1C2709.27 183.1 2722.18 184.337 2734.54 186.809C2747.18 189.282 2758.86 192.991 2769.57 197.936C2780.29 202.607 2789.36 208.102 2796.77 214.421L2775.76 269.644C2765.32 261.951 2753.09 256.044 2739.08 251.923C2725.34 247.527 2710.64 245.329 2694.98 245.329C2684.82 245.329 2676.16 246.566 2669.02 249.038C2661.88 251.236 2656.38 254.533 2652.53 258.929C2648.96 263.325 2647.18 268.408 2647.18 274.177C2647.18 279.947 2649.51 284.892 2654.18 289.013C2659.13 292.86 2668.06 296.157 2680.97 298.904L2728.77 309.207C2755.42 314.976 2775.34 324.455 2788.53 337.643C2801.72 350.83 2808.31 368.002 2808.31 389.157C2808.31 407.839 2803.23 424.324 2793.06 438.61C2782.9 452.622 2768.61 463.474 2750.2 471.167C2731.8 478.86 2710.09 482.706 2685.09 482.706Z" fill="#0051FF"/>
<path d="M134.878 861.919C111.913 861.919 92.1827 856.906 75.6868 846.879C59.191 836.528 46.4148 822.135 37.3582 803.698C28.6252 784.938 24.2586 763.267 24.2586 738.685C24.2586 713.78 28.6252 692.432 37.3582 674.643C46.4148 656.853 59.191 643.106 75.6868 633.403C92.1827 623.376 111.913 618.363 134.878 618.363C149.433 618.363 163.503 621.112 177.088 626.611C190.996 632.109 202.64 639.71 212.02 649.414L200.376 671.732C190.349 662.028 179.675 655.074 168.355 650.869C157.034 646.341 146.199 644.077 135.848 644.077C109.649 644.077 89.4334 652.325 75.2017 668.821C61.2934 684.993 54.3393 708.443 54.3393 739.171C54.3393 769.575 61.2934 793.51 75.2017 810.976C89.4334 828.119 109.649 836.69 135.848 836.69C146.199 836.69 157.034 834.588 168.355 830.383C179.675 825.855 190.349 818.739 200.376 809.035L212.02 831.353C202.64 840.733 190.834 848.173 176.603 853.671C162.694 859.17 148.786 861.919 134.878 861.919ZM359.133 861.919C334.875 861.919 314.012 857.067 296.546 847.364C279.08 837.66 265.657 823.752 256.277 805.639C246.897 787.526 242.207 766.017 242.207 741.111C242.207 716.529 246.897 695.182 256.277 677.069C265.657 658.632 278.595 644.239 295.091 633.888C311.91 623.538 331.155 618.363 352.826 618.363C373.85 618.363 391.64 623.053 406.195 632.433C421.074 641.489 432.394 654.589 440.157 671.732C448.243 688.551 452.286 708.928 452.286 732.863V746.448H263.555V724.615H433.85L426.087 730.923C426.087 703.106 419.942 681.435 407.651 665.91C395.36 650.061 377.247 642.136 353.311 642.136C335.522 642.136 320.481 646.341 308.19 654.751C295.899 662.837 286.681 674.158 280.536 688.713C274.39 702.944 271.317 719.44 271.317 738.2V740.626C271.317 761.327 274.552 778.955 281.021 793.51C287.813 807.742 297.84 818.577 311.101 826.016C324.363 833.456 340.05 837.175 358.163 837.175C372.718 837.175 386.303 834.911 398.918 830.383C411.855 825.855 424.47 818.254 436.761 807.58L448.405 829.898C438.055 839.601 424.793 847.364 408.621 853.186C392.449 859.008 375.953 861.919 359.133 861.919ZM512.615 858.038V622.729H541.725V678.039H536.873C543.019 658.955 552.884 644.562 566.469 634.859C580.377 625.155 598.49 619.495 620.808 617.878L632.937 616.907L635.848 642.621L614.986 645.047C592.021 647.311 574.231 654.912 561.617 667.85C549.002 680.788 542.695 698.254 542.695 720.249V858.038H512.615ZM780.024 861.919C753.825 861.919 734.094 854.803 720.833 840.572C707.895 826.34 701.426 805.963 701.426 779.44V646.503H654.85V622.729H701.426V549.953H731.022V622.729H807.194V646.503H731.022V775.558C731.022 795.289 735.065 810.329 743.151 820.679C751.237 831.03 764.66 836.205 783.42 836.205C788.919 836.205 794.256 835.558 799.431 834.264C804.606 832.647 809.134 831.192 813.016 829.898L818.838 853.186C815.28 855.45 809.619 857.391 801.857 859.008C794.094 860.949 786.816 861.919 780.024 861.919ZM848.899 560.627V523.269H888.684V560.627H848.899ZM853.751 858.038V622.729H883.347V858.038H853.751ZM972.463 858.038V646.503H925.886V622.729H980.226L972.463 630.492V611.085C972.463 580.681 979.902 557.716 994.781 542.191C1009.66 526.342 1032.46 517.609 1063.19 515.991L1079.69 515.021L1082.11 538.795L1060.28 540.25C1047.02 540.897 1036.02 543.97 1027.29 549.468C1018.88 554.643 1012.57 562.244 1008.37 572.271C1004.16 581.975 1002.06 594.104 1002.06 608.659V628.066V622.729H1142.76V858.038H1113.16V646.503H1002.06V858.038H972.463ZM1108.31 560.627V523.269H1147.61V560.627H1108.31ZM1317.01 861.919C1294.05 861.919 1274.32 856.906 1257.82 846.879C1241.32 836.528 1228.55 822.135 1219.49 803.698C1210.76 784.938 1206.39 763.267 1206.39 738.685C1206.39 713.78 1210.76 692.432 1219.49 674.643C1228.55 656.853 1241.32 643.106 1257.82 633.403C1274.32 623.376 1294.05 618.363 1317.01 618.363C1331.57 618.363 1345.64 621.112 1359.22 626.611C1373.13 632.109 1384.77 639.71 1394.15 649.414L1382.51 671.732C1372.48 662.028 1361.81 655.074 1350.49 650.869C1339.17 646.341 1328.33 644.077 1317.98 644.077C1291.78 644.077 1271.57 652.325 1257.33 668.821C1243.43 684.993 1236.47 708.443 1236.47 739.171C1236.47 769.575 1243.43 793.51 1257.33 810.976C1271.57 828.119 1291.78 836.69 1317.98 836.69C1328.33 836.69 1339.17 834.588 1350.49 830.383C1361.81 825.855 1372.48 818.739 1382.51 809.035L1394.15 831.353C1384.77 840.733 1372.97 848.173 1358.74 853.671C1344.83 859.17 1330.92 861.919 1317.01 861.919ZM1514.04 861.919C1498.19 861.919 1483.96 858.846 1471.34 852.701C1459.05 846.555 1449.19 838.146 1441.75 827.472C1434.63 816.798 1431.08 804.831 1431.08 791.569C1431.08 774.103 1435.44 760.356 1444.18 750.33C1452.91 740.303 1467.63 733.348 1488.33 729.467C1509.03 725.262 1537.49 723.16 1573.72 723.16H1594.58V744.993H1574.2C1552.53 744.993 1534.26 745.64 1519.38 746.933C1504.82 748.227 1493.34 750.653 1484.93 754.211C1476.52 757.445 1470.54 761.974 1466.98 767.796C1463.74 773.618 1462.13 780.734 1462.13 789.143C1462.13 803.698 1467.14 815.504 1477.17 824.561C1487.19 833.617 1500.78 838.146 1517.92 838.146C1531.83 838.146 1543.96 834.911 1554.31 828.442C1564.98 821.65 1573.39 812.432 1579.54 800.787C1585.68 789.143 1588.76 775.882 1588.76 761.003V705.694C1588.76 684.023 1584.39 668.335 1575.66 658.632C1566.92 648.605 1553.02 643.592 1533.93 643.592C1519.7 643.592 1505.95 645.694 1492.69 649.899C1479.75 654.104 1466.33 660.734 1452.42 669.791L1440.78 646.988C1449.19 641.166 1458.41 636.152 1468.43 631.948C1478.78 627.743 1489.46 624.508 1500.46 622.244C1511.78 619.657 1522.77 618.363 1533.45 618.363C1552.53 618.363 1568.22 621.597 1580.51 628.066C1593.12 634.535 1602.34 644.239 1608.16 657.176C1614.31 670.114 1617.38 686.772 1617.38 707.149V858.038H1589.24V801.273H1594.09C1591.18 813.887 1586.01 824.723 1578.57 833.779C1571.13 842.836 1561.91 849.79 1550.91 854.642C1539.92 859.493 1527.62 861.919 1514.04 861.919ZM1783.53 861.919C1757.33 861.919 1737.6 854.803 1724.34 840.572C1711.41 826.34 1704.94 805.963 1704.94 779.44V646.503H1658.36V622.729H1704.94V549.953H1734.53V622.729H1810.7V646.503H1734.53V775.558C1734.53 795.289 1738.57 810.329 1746.66 820.679C1754.75 831.03 1768.17 836.205 1786.93 836.205C1792.43 836.205 1797.77 835.558 1802.94 834.264C1808.12 832.647 1812.64 831.192 1816.53 829.898L1822.35 853.186C1818.79 855.45 1813.13 857.391 1805.37 859.008C1797.6 860.949 1790.33 861.919 1783.53 861.919ZM1852.41 560.627V523.269H1892.19V560.627H1852.41ZM1857.26 858.038V622.729H1886.86V858.038H1857.26ZM2058.45 861.919C2036.46 861.919 2017.37 856.906 2001.2 846.879C1985.03 836.852 1972.42 822.782 1963.36 804.669C1954.63 786.556 1950.26 765.046 1950.26 740.141C1950.26 715.559 1954.63 694.211 1963.36 676.098C1972.42 657.662 1985.03 643.43 2001.2 633.403C2017.37 623.376 2036.46 618.363 2058.45 618.363C2080.77 618.363 2100.02 623.376 2116.19 633.403C2132.36 643.43 2144.81 657.662 2153.55 676.098C2162.6 694.211 2167.13 715.559 2167.13 740.141C2167.13 765.046 2162.6 786.556 2153.55 804.669C2144.81 822.782 2132.36 836.852 2116.19 846.879C2100.02 856.906 2080.77 861.919 2058.45 861.919ZM2058.45 837.175C2082.71 837.175 2101.79 828.766 2115.7 811.946C2129.93 795.127 2137.05 771.192 2137.05 740.141C2137.05 709.413 2129.93 685.64 2115.7 668.821C2101.79 652.001 2082.71 643.592 2058.45 643.592C2034.84 643.592 2015.92 652.001 2001.69 668.821C1987.46 685.64 1980.34 709.413 1980.34 740.141C1980.34 771.192 1987.46 795.127 2001.69 811.946C2015.92 828.766 2034.84 837.175 2058.45 837.175ZM2230.14 858.038V622.729H2259.25V677.554H2253.92C2260.38 658.147 2271.38 643.43 2286.91 633.403C2302.76 623.376 2320.87 618.363 2341.25 618.363C2360.01 618.363 2375.53 621.759 2387.82 628.551C2400.44 635.02 2409.82 645.047 2415.96 658.632C2422.11 672.217 2425.18 689.198 2425.18 709.575V858.038H2395.59V712.001C2395.59 696.475 2393.48 683.699 2389.28 673.672C2385.4 663.645 2379.09 656.206 2370.36 651.354C2361.62 646.503 2350.47 644.077 2336.88 644.077C2321.35 644.077 2307.77 647.311 2296.13 653.78C2284.81 660.249 2275.91 669.468 2269.44 681.435C2262.97 693.403 2259.74 707.473 2259.74 723.645V858.038H2230.14ZM2578.29 861.919C2566.64 861.919 2555.16 860.787 2543.84 858.523C2532.84 856.259 2522.49 852.863 2512.79 848.334C2503.41 843.806 2495.32 838.307 2488.53 831.838L2499.2 810.006C2507.29 816.475 2515.7 821.812 2524.43 826.016C2533.17 829.898 2542.06 832.809 2551.12 834.749C2560.5 836.69 2569.88 837.66 2579.26 837.66C2598.99 837.66 2614.03 833.941 2624.38 826.502C2634.73 819.062 2639.9 809.035 2639.9 796.421C2639.9 786.071 2636.51 778.146 2629.72 772.647C2623.25 766.825 2612.57 762.135 2597.69 758.577L2555.48 748.874C2535.11 744.346 2520.07 737.068 2510.36 727.041C2500.66 716.691 2495.81 703.43 2495.81 687.257C2495.81 673.349 2499.37 661.22 2506.48 650.869C2513.92 640.519 2524.27 632.594 2537.53 627.096C2551.12 621.274 2566.64 618.363 2584.11 618.363C2594.78 618.363 2605.13 619.657 2615.16 622.244C2625.19 624.508 2634.41 627.904 2642.82 632.433C2651.23 636.961 2658.5 642.621 2664.65 649.414L2653 671.246C2646.86 665.101 2639.9 659.926 2632.14 655.721C2624.7 651.516 2616.94 648.443 2608.85 646.503C2600.77 644.239 2592.36 643.107 2583.62 643.107C2564.86 643.107 2550.31 646.988 2539.96 654.751C2529.93 662.513 2524.92 673.025 2524.92 686.287C2524.92 696.314 2527.99 704.4 2534.14 710.545C2540.61 716.691 2550.63 721.381 2564.22 724.615L2606.43 734.319C2627.45 739.171 2643.14 746.448 2653.49 756.152C2663.84 765.532 2669.01 778.308 2669.01 794.48C2669.01 808.388 2665.3 820.518 2657.86 830.868C2650.42 840.895 2639.9 848.658 2626.32 854.156C2612.73 859.332 2596.72 861.919 2578.29 861.919Z" fill="#0051FF"/>
<g filter="url(#filter0_d_70_8)">
<path d="M2857.93 215.943L3048.89 240.51L3049.57 240.597L3049.93 241.176L3108.79 335.104L3109.01 335.455V442.055L3108.47 442.489L2995.31 532.708L3015.91 595.737L3066.11 496.607L3066.59 495.651L3067.64 495.836L3177.66 515.078L3179.13 515.336L3178.82 516.798L3153.97 635.292L3153.93 635.481L3153.85 635.651L3114.19 713.48L3109.07 746.02L3149.39 823.63L3149.5 823.833L3149.54 824.058L3162.62 902.09L3162.85 903.492L3161.45 903.75L3098.67 915.311L3098.23 915.393L3097.81 915.206L3004.95 873.3L3004.71 873.193L3004.53 873.013L2956.69 825.87L2902.51 837.271L2902.18 837.342L2901.84 837.254L2743.58 795.348L2743.15 795.234L2742.86 794.895L2634.3 669.176L2633.87 668.687L2633.96 668.046L2653.58 516.317L2653.65 515.76L2654.08 515.398L2743.02 440.255L2743.42 439.914H2766.14L2775.21 305.428L2775.24 304.921L2775.59 304.547L2856.68 216.399L2857.19 215.849L2857.93 215.943ZM2812.7 585.58L2785.96 611.04V632.359L2798.83 656.522L2823.51 688.693L2864.25 696.968L2908.17 682.328L2839.43 567.758L2812.7 585.58ZM2908.17 385.083L2922.17 435.366L2962.27 427.808L2980.73 385.083L2973.09 359.623L2942.54 355.804L2908.17 385.083Z" fill="white"/>
</g>
<path d="M2802.07 772.071C2768.86 761.248 2741.76 746.549 2720.77 727.974C2700.24 709.548 2686.6 688.776 2679.85 665.655C2673.1 642.535 2673.85 618.29 2682.12 592.921C2688.88 572.164 2698.74 554.455 2711.68 539.793C2725.08 525.282 2741.57 513.051 2761.14 503.101C2781.17 493.301 2804.21 485.245 2830.24 478.933L2857.81 471.844L2843.16 483.909C2829.31 454.393 2820.7 429.137 2817.34 408.141C2814.44 387.296 2816.07 367.418 2822.23 348.506C2829.45 326.366 2840.83 308.646 2856.39 295.348C2872.56 281.738 2891.61 273.403 2913.53 270.34C2935.9 267.428 2959.78 270.105 2985.15 278.373C3008.67 286.038 3027.61 296.804 3041.98 310.668C3056.34 324.532 3065.88 340.653 3070.61 359.031C3075.33 377.409 3074.24 397.207 3067.32 418.425C3061.91 435.031 3053.27 449.817 3041.39 462.784C3029.97 475.901 3014.32 487.129 2994.44 496.468C2974.56 505.807 2948.99 513.803 2917.74 520.457L2924.07 503.385L3004.19 680.271L2988.97 675.311C3006.2 660.007 3022.41 640.03 3037.58 615.382C3052.76 590.733 3065.85 563.874 3076.85 534.804L3135.66 553.969C3122.26 591.953 3105.01 626.127 3083.88 656.492C3063.38 686.547 3040.45 711.477 3015.12 731.285L3020.52 712.379L3091.93 859.638L3006.82 831.905L2967.58 745.643L2984.19 751.054C2957.45 767.343 2928.14 777.435 2896.25 781.332C2864.83 785.379 2833.44 782.292 2802.07 772.071ZM2823.79 717.155C2848.7 725.272 2872.19 727.568 2894.26 724.044C2916.48 720.06 2938.35 710.861 2959.89 696.448L2951.5 715.145L2857.17 513.73L2884.86 525.05L2859.82 531.432C2838.54 537.252 2820.71 543.432 2806.33 549.972C2792.41 556.663 2781.04 564.947 2772.21 574.825C2763.99 584.392 2757.62 596.095 2753.11 609.932C2745.45 633.457 2747.43 654.768 2759.07 673.867C2771.31 692.655 2792.89 707.084 2823.79 717.155ZM2968.46 329.572C2950.01 323.56 2933.29 323.979 2918.3 330.831C2903.78 337.832 2893.58 350.327 2887.72 368.317C2884.71 377.542 2883.24 386.757 2883.3 395.961C2883.52 404.704 2885.66 415.352 2889.73 427.905C2894.42 440.147 2900.89 455.522 2909.14 474.029L2891.85 468.393C2917.27 462.392 2937.56 456.502 2952.71 450.724C2967.86 444.945 2979.78 438.115 2988.47 430.232C2997.16 422.349 3003.31 412.873 3006.92 401.803C3012.48 384.736 3011.46 369.862 3003.86 357.179C2996.87 344.186 2985.07 334.984 2968.46 329.572Z" fill="#0051FF"/>
<defs>
<filter id="filter0_d_70_8" x="2624.45" y="215.849" width="564.097" height="719.148" filterUnits="userSpaceOnUse" color-interpolation-filters="sRGB">
<feFlood flood-opacity="0" result="BackgroundImageFix"/>
<feColorMatrix in="SourceAlpha" type="matrix" values="0 0 0 0 0 0 0 0 0 0 0 0 0 0 0 0 0 0 127 0" result="hardAlpha"/>
<feOffset dy="10.184"/>
<feGaussianBlur stdDeviation="4.7101"/>
<feComposite in2="hardAlpha" operator="out"/>
<feColorMatrix type="matrix" values="0 0 0 0 0 0 0 0 0 0 0 0 0 0 0 0 0 0 0.25 0"/>
<feBlend mode="normal" in2="BackgroundImageFix" result="effect1_dropShadow_70_8"/>
<feBlend mode="normal" in="SourceGraphic" in2="effect1_dropShadow_70_8" result="shape"/>
</filter>
</defs>
</svg>
