<svg width="1739" height="535" viewBox="0 0 1739 535" fill="none" xmlns="http://www.w3.org/2000/svg">
<g filter="url(#filter0_d_45_16)">
<path d="M25.1061 397V120.441H158.09C179.012 120.441 196.795 124.102 211.44 131.425C226.085 138.486 237.2 148.816 244.784 162.415C252.63 175.753 256.553 191.967 256.553 211.058C256.553 229.626 252.63 245.841 244.784 259.701C237.2 273.3 226.085 283.761 211.44 291.084C196.795 298.145 179.012 301.675 158.09 301.675H97.286V397H25.1061ZM97.286 246.364H145.537C159.136 246.364 169.597 243.487 176.919 237.733C184.242 231.718 187.903 222.827 187.903 211.058C187.903 199.028 184.242 190.136 176.919 184.383C169.597 178.629 159.136 175.753 145.537 175.753H97.286V246.364ZM290.203 397V120.441H423.187C454.569 120.441 478.76 128.156 495.759 143.586C513.02 158.754 521.65 179.937 521.65 207.135C521.65 224.657 517.727 239.956 509.881 253.032C502.297 265.847 491.182 275.785 476.537 282.846C462.154 289.645 444.37 293.045 423.187 293.045L426.325 285.984H445.155C456.4 285.984 466.338 288.73 474.968 294.222C483.598 299.452 490.79 307.56 496.544 318.544L539.695 397H460.454L412.595 309.129C410.503 305.206 408.019 302.198 405.142 300.106C402.265 298.014 398.996 296.445 395.335 295.399C391.935 294.353 388.143 293.83 383.959 293.83H362.383V397H290.203ZM362.383 242.833H410.242C424.102 242.833 434.694 240.087 442.016 234.595C449.339 229.103 453 220.604 453 209.097C453 198.113 449.339 189.875 442.016 184.383C434.694 178.629 424.102 175.753 410.242 175.753H362.383V242.833ZM698.636 401.315C677.715 401.315 658.624 397.915 641.363 391.116C624.103 384.316 609.196 374.64 596.643 362.087C584.352 349.272 574.806 334.104 568.006 316.582C561.468 299.06 558.199 279.708 558.199 258.524C558.199 237.08 561.468 217.596 568.006 200.074C574.806 182.552 584.352 167.515 596.643 154.962C609.196 142.409 624.103 132.863 641.363 126.325C658.624 119.526 677.715 116.126 698.636 116.126C719.558 116.126 738.649 119.526 755.91 126.325C773.17 132.863 787.946 142.409 800.238 154.962C812.791 167.515 822.336 182.552 828.874 200.074C835.674 217.335 839.074 236.687 839.074 258.132C839.074 279.838 835.674 299.452 828.874 316.974C822.336 334.496 812.791 349.665 800.238 362.479C787.946 375.032 773.17 384.708 755.91 391.508C738.649 398.046 719.558 401.315 698.636 401.315ZM698.636 340.904C712.497 340.904 724.266 337.635 733.942 331.097C743.618 324.559 751.072 315.144 756.302 302.852C761.532 290.561 764.148 275.785 764.148 258.524C764.148 241.264 761.532 226.488 756.302 214.196C751.333 201.905 743.88 192.621 733.942 186.344C724.266 179.806 712.497 176.537 698.636 176.537C685.037 176.537 673.269 179.806 663.331 186.344C653.655 192.621 646.201 201.905 640.971 214.196C635.741 226.488 633.125 241.264 633.125 258.524C633.125 275.785 635.61 290.561 640.579 302.852C645.809 315.144 653.393 324.559 663.331 331.097C673.269 337.635 685.037 340.904 698.636 340.904ZM843.962 401.315L839.647 343.65L871.814 341.688C878.352 341.427 883.582 340.381 887.505 338.55C891.428 336.458 894.305 333.45 896.135 329.527C898.227 325.605 899.274 320.636 899.274 314.621V120.441H971.454V313.444C971.454 331.489 968.185 346.788 961.646 359.341C955.108 371.632 945.432 381.047 932.618 387.585C919.803 394.123 903.589 398.046 883.975 399.354L843.962 401.315ZM1021.52 397V120.441H1216.88V176.145H1090.56V228.711H1207.85V284.415H1090.56V341.296H1216.88V397H1021.52ZM1329.52 397V179.283H1241.64V120.441H1489.57V179.283H1401.7V397H1329.52ZM1611.2 401.315C1596.82 401.315 1582.7 400.138 1568.84 397.785C1554.97 395.431 1542.16 392.031 1530.39 387.585C1518.62 383.139 1508.42 377.909 1499.79 371.894L1519.8 315.798C1527.91 321.028 1536.93 325.605 1546.87 329.527C1556.81 333.45 1567.27 336.589 1578.25 338.942C1589.23 341.034 1600.22 342.08 1611.2 342.08C1628.46 342.08 1640.49 339.858 1647.29 335.412C1654.35 330.704 1657.88 324.951 1657.88 318.151C1657.88 313.967 1656.84 310.436 1654.75 307.56C1652.65 304.683 1649.12 302.198 1644.15 300.106C1639.45 297.753 1633.04 295.791 1624.93 294.222L1579.03 284.415C1553.93 279.185 1535.23 270.031 1522.94 256.955C1510.65 243.879 1504.5 227.011 1504.5 206.351C1504.5 188.044 1509.34 172.222 1519.02 158.885C1528.95 145.285 1542.68 134.825 1560.2 127.502C1577.99 119.918 1598.39 116.126 1621.4 116.126C1634.22 116.126 1646.51 117.303 1658.28 119.656C1670.31 122.01 1681.42 125.541 1691.62 130.248C1701.82 134.694 1710.45 139.924 1717.51 145.939L1697.5 198.505C1687.57 191.183 1675.93 185.56 1662.59 181.637C1649.51 177.453 1635.52 175.36 1620.62 175.36C1610.94 175.36 1602.7 176.537 1595.9 178.891C1589.1 180.983 1583.87 184.121 1580.21 188.306C1576.81 192.49 1575.11 197.328 1575.11 202.82C1575.11 208.312 1577.33 213.02 1581.78 216.942C1586.49 220.604 1594.99 223.742 1607.28 226.357L1652.78 236.164C1678.15 241.656 1697.11 250.679 1709.66 263.232C1722.22 275.785 1728.49 292.13 1728.49 312.267C1728.49 330.05 1723.66 345.742 1713.98 359.341C1704.3 372.678 1690.7 383.009 1673.18 390.331C1655.66 397.654 1635 401.315 1611.2 401.315Z" fill="#0051FF"/>
</g>
<defs>
<filter id="filter0_d_45_16" x="21.106" y="116.126" width="1711.39" height="293.189" filterUnits="userSpaceOnUse" color-interpolation-filters="sRGB">
<feFlood flood-opacity="0" result="BackgroundImageFix"/>
<feColorMatrix in="SourceAlpha" type="matrix" values="0 0 0 0 0 0 0 0 0 0 0 0 0 0 0 0 0 0 127 0" result="hardAlpha"/>
<feOffset dy="4"/>
<feGaussianBlur stdDeviation="2"/>
<feComposite in2="hardAlpha" operator="out"/>
<feColorMatrix type="matrix" values="0 0 0 0 0 0 0 0 0 0 0 0 0 0 0 0 0 0 0.25 0"/>
<feBlend mode="normal" in2="BackgroundImageFix" result="effect1_dropShadow_45_16"/>
<feBlend mode="normal" in="SourceGraphic" in2="effect1_dropShadow_45_16" result="shape"/>
</filter>
</defs>
</svg>
